/* XPM */
static char *_469d260a1d347dc82414694f527386c[] = {
/* columns rows colors chars-per-pixel */
"50 50 222 2 ",
"   c #363533",
".  c #393533",
"X  c #3B3B37",
"o  c #3D3C3A",
"O  c #3E2A28",
"+  c #47382B",
"@  c #533F2E",
"#  c #462D36",
"$  c #443D35",
"%  c #433D3C",
"&  c #4B3D32",
"*  c #522C37",
"=  c #6A2B3E",
"-  c #4F4235",
";  c #48443E",
":  c #57483A",
">  c #644C3B",
",  c #68493C",
"<  c #70543C",
"1  c #533A45",
"2  c #782547",
"3  c #65384D",
"4  c #793554",
"5  c #772E52",
"6  c #444542",
"7  c #464845",
"8  c #4B4944",
"9  c #4C4C49",
"0  c #544D43",
"q  c #554C4B",
"w  c #57524A",
"e  c #5B4B51",
"r  c #5B5B56",
"t  c #585956",
"y  c #4E504E",
"u  c #784D46",
"i  c #655A4D",
"p  c #685748",
"a  c #745942",
"s  c #7B5E45",
"d  c #7B564C",
"f  c #75495D",
"g  c #635A56",
"h  c #6A4A52",
"j  c #5D615C",
"k  c #4B6B5D",
"l  c #7C6249",
"z  c #63625C",
"x  c #6B645B",
"c  c #746354",
"v  c #7C6C5C",
"b  c #77685C",
"n  c #594C69",
"m  c #6D4D73",
"M  c #73526B",
"N  c #666664",
"B  c #666965",
"V  c #6B6B65",
"C  c #6B6E69",
"Z  c #676A69",
"A  c #6E716C",
"S  c #71736E",
"D  c #7D7263",
"F  c #747672",
"G  c #767975",
"H  c #797C76",
"J  c #777C79",
"K  c #7B7E79",
"L  c #747073",
"P  c #892039",
"I  c #842B55",
"U  c #94265D",
"Y  c #873352",
"T  c #98385F",
"R  c #8E2744",
"E  c #BF3D5B",
"W  c #973764",
"Q  c #853F67",
"!  c #A73966",
"~  c #B43C6B",
"^  c #B92F75",
"/  c #B33372",
"(  c #BE3579",
")  c #BA3B76",
"_  c #AC326F",
"`  c #C5327C",
"'  c #C5377E",
"]  c #84434E",
"[  c #825D47",
"{  c #98455B",
"}  c #9C575B",
"|  c #8B4C53",
" . c #A3575F",
".. c #87654A",
"X. c #956754",
"o. c #9E7755",
"O. c #A3625D",
"+. c #A67959",
"@. c #984A64",
"#. c #94556D",
"$. c #A64868",
"%. c #B2436C",
"&. c #A85964",
"*. c #A84572",
"=. c #B84779",
"-. c #A65876",
";. c #B65876",
":. c #8B7867",
">. c #966379",
",. c #8B6D72",
"<. c #A87A7A",
"1. c #B06D70",
"2. c #C5457C",
"3. c #C84776",
"4. c #C6557B",
"5. c #7E817C",
"6. c #AD845D",
"7. c #81847F",
"8. c #82847F",
"9. c #82857E",
"0. c #81837E",
"q. c #83887F",
"w. c #968573",
"e. c #97806E",
"r. c #AC8370",
"t. c #6C5E86",
"y. c #7E6996",
"u. c #6B78A2",
"i. c #9F3E80",
"p. c #D32F83",
"a. c #CC3481",
"s. c #D43284",
"d. c #D83789",
"f. c #D53B88",
"g. c #DB3C8C",
"h. c #D23B86",
"j. c #CF2F81",
"k. c #985384",
"l. c #B85788",
"z. c #B25D96",
"x. c #B75282",
"c. c #92689B",
"v. c #A26E84",
"b. c #A76383",
"n. c #B66388",
"m. c #A67483",
"M. c #BB7194",
"N. c #B26C92",
"B. c #AB68A0",
"V. c #C54C85",
"C. c #CE4B84",
"Z. c #CD4E89",
"A. c #C54985",
"S. c #DD438E",
"D. c #D24D8B",
"F. c #D14887",
"G. c #CC518C",
"H. c #C65886",
"J. c #D1528E",
"K. c #D45B8A",
"L. c #C75894",
"P. c #D75391",
"I. c #DC5394",
"U. c #D75B95",
"Y. c #DF4E93",
"T. c #E14592",
"R. c #E34B95",
"E. c #E74F98",
"W. c #E15597",
"Q. c #E5559A",
"!. c #EA559C",
"~. c #E45A9B",
"^. c #ED599F",
"/. c #C2698B",
"(. c #DC6C8B",
"). c #CC6B96",
"_. c #D5699A",
"`. c #CA789D",
"'. c #CD718F",
"]. c #ED5DA1",
"[. c #D679A4",
"{. c #ED63A4",
"}. c #ED69A7",
"|. c #EB6DA8",
" X c #EE74AC",
".X c #EE79AF",
"XX c #E57EAD",
"oX c #F171AD",
"OX c #ED7CB1",
"+X c #F27FB5",
"@X c #7E8480",
"#X c #828680",
"$X c #848681",
"%X c #838681",
"&X c #858983",
"*X c #898F87",
"=X c #B88688",
"-X c #B79986",
";X c #AB8597",
":X c #B88395",
">X c #AD8385",
",X c #BB87A7",
"<X c #C69595",
"1X c #CA818D",
"2X c #CA88A8",
"3X c #DA84AB",
"4X c #DC97AE",
"5X c #DE92B3",
"6X c #EE85B5",
"7X c #EE89B7",
"8X c #EE8CB9",
"9X c #E58BB4",
"0X c #F387BA",
"qX c #EE94BD",
"wX c #EA9DBF",
"eX c #E19AB1",
"rX c #F391BE",
"tX c #E28CAC",
"yX c #DAABA4",
"uX c #EE9DC1",
"iX c #F49BC3",
"pX c #F1A3C4",
/* pixels */
"8.8.8.5.8.8.5.&XH 5.%X0.%X5.0.8.5.0.G K K K K 8.H 0.0.5.%X5.5.F K %X0.5.0.K 0.K H 5.%X%X5.0.%X8.0.K ",
"5.K %XK K H &XG 5.8.5.J K %X0.5.%XH K %X5.K 5.H 0.K 0.F 5.H 5.@X8.%X5.8.J 8.5.8.0.5.8.H K K H H 5.5.",
"5.%XK K K 8.5.5.F @X0.K %XH K H %X8.K 5.5.H 8.K 5.K 5.5.q.5.5.%XH K 8.5.0.F 5.%XK 8.F &X8.5.5.0.0.8.",
"K K K 5.0.K %XK %X5.0.5.%XK K %X8.H %X8.K 8.5.K 5.5.5.H K K K 0.K G 5.K 0.H H H 5.0.H K 5.%X5.5.5.5.",
"K 8.*X5.K H 5.5.K 5.0.K 0.%X%XH 5.K K 5.5.8.H 8.5.K 5.%X0.5.5.K K K %X0.q.%XK %XG H H 5.K K 5.H 8.5.",
"0.%XH 5.%XK K 5.K 5.0.0.K K K H G 0.K K 8.J K 0.%XK 8.5.K K 0.5.8.8.K 5.K K K 8.5.K 8.K K &XK 5.F 5.",
"5.0.8.5.5.5.H 5.K K J K 0.F 5.%X0.0.K K %XK 5.%XK 0.5.0.K %X5.K 5.&XK %X8.0.8.8.5.5.0.5.5.K 5.K J 5.",
"%X5.K 5.8.K %X5.K %XK 0.8.5.5.8.K K K 5.H V t 7   % o o y N S 5.0.J %X%X5.K 8.H K 0.K K 5.K %XK K K ",
"q.#XK 5.5.5.8.H 8.8.&X0.K 5.K H 5.0.K y   x w.v : b c v :.w.b 8 Z 8.G G 0.K 0.5.8.5.K 5.K K K &X0.G ",
"K K 0.5.5.8.G 5.K &X5.G 0.K %XH j e 3 `.8XqX9XN.v.>.n.l.H.-.#.:.i r V K 5.H 8.8.5.H 5.F 5.K 0.G J #X",
"K K 8.K K %XK K &X5.0.H K K A z 0 >.3XuXuXuXuXuXuXqXqX/.).}.P.-.<.i 8 V G K K %X%XK K K 5.5.5.0.5.5.",
"&XK K K 5.K 5.5.5.0.F K K r o v r.3XuXqX8X7X7X7X7X7X7XE 4.6X X].D.-.:.; N &XK K K 0.5.5.K K 0.K 5.K ",
"K G 5.8.%XK K 5.K F %XH F 0 :.<.`.uXuX7X6X2Xv.[.6X6X6X;.).6X6X X].F.=.* % 5.K &X5.5.5.%X5.5.H K K 5.",
"5.F %XK K 5.8.5.5.5.F e 3 M.3XuXuXqX7X6XOX_.b.;X[. X.X.X.XOX1X<.3X|.].T.' 1 C K 5.K 5.5.5.0.8.0.%XK ",
"5.5.H 0.0.8.5.H %XF q b.9X2X,X5X8X6X6X Xn.G.^.Z.P.^.^.^.^.{.'.} _.6XOX{.R.W % 8.@X0.5.5.5.G S K 8.K ",
"K H %X5.5.8.q.K S g f qXqX>.n M `.1.U.].N =.^.W.Q.^.^.^.^.M.G.G.~.}.|. X{.A.4 C 5.5.G 8.8.5.5.K H 8.",
"0.0.0.F H K H %XH e `.qX7X[.M.M.[.d =.^.g I.^.c.z.^.^.P.W.,.`.^.^.^.I.$.Z.T.W w K H 5.G 8.5.H %X0.&X",
"K K H K 8.5.H 0.S f qX7X6X2X;XXXOX@.;.!.Q.g.^ n i.A.M f P.U.-.P.^.^.3.~ W.R.( # 6 K H K 5.5.5.K K K ",
"J K #XK K K 5.%Xj >.qX6X6Xv.k b.U.^.!.T.d.` _ 3 W @.7 ) R.!.~.G.z.l.=.D.^.!.g.Y O G 5.H 0.5.%X%XK 5.",
"5.8.H 0.8.%X5.%XX m.qX X{.W.H.x.I.!.T.s.! 1.X.u > > d | } =.^.V.k.Q x.^.^.^.!.' ] 6 H 0.G 8.K 5.G %X",
"5.0.5.H 0.K 5.5.o >XqX}.^.^.^.^.n.A.d./ ] a - x x x i + < &.Z.!.W.Z.I.^.;.J.^.T.) : C 5.5.0.8.5.K 0.",
"K 0.5.5.5.5.5.B D =X6X].^.^.W.>.;Xa.) +.l r K J 5.q.8.F 6 ..&.W.b.G.^.^.1.I.^.!.d.> o 5.0.%X%X0.0.K ",
"5.K H 8.5.0.%X9 :.m.|.l.U.^.P.N._.` $.6.+ %XK 5.%X5.5.5.H & 1.Z.L f P.^.;.^.^.T.h.a X K K K K 0.5.K ",
"@XH 0.%XH 5.H   c l.t.m V.^.^.^.^.' { s i G K 8.0.0.8.5.K i , K.W.x.P.^.^.^.^.g.( s X 8.0.S J 5.5.5.",
"&XH K 5.5.5.5.o h J.k.L.W.^.^.^.^.S.%.@ r H &X0.K 0.H K 5.t - /.~.~._.).W.^.^.g.( s   K K K G &XK H ",
"0.5.8.5.K K H . 3 !.^.J.[.`.G.C.2.R.4.+ r G H 8.5.0.5.8.5.V e.4X Xl.,.U.^.^.^.g.a.< . %XG 8.G H 8.5.",
"0.5.5.0.K 8.%X  > F.!.=.2X2X=.~ = ) H.i t 5.K 5.G 0.0.5.0.g -X5XoX*.=.^.C.D.^.g.s., . 5.K 5.5.K 5.J ",
"K 5.5.8.G %XK o ..$.d.!.^.^.^.Q.C.2.H.-Xw 8.K F K 5.5.5.B b yXiXoX^.^.^.2.R =.S.s.4 9 K 8.0.8.K G K ",
"5.H 8.K 5.K K t l O./ ) &.;.^.^.^.^._.>Xb t 8.0.K 5.H F ; v <XpX=X&.G.^.!.2.Z.E.d.W r 0.5.%X5.%X8.H ",
"H &Xq.5.K 5.8.H $ X.{ a.) Z.^.^.^.^.{.rX:Xe.0 x V V x 0 :.<X3XiX_.*.=.^.^.!.R.d.` 1 J K K H 5.5.5.0.",
"%X0.%X5.8.8.5.K 7 +.O.` R.Q.P.^.^.^.W.H.`.<X<X,.b w.-X<X:X[.+X{.^.L.B.^.^.R.d.` I r H 5.0.5.5.K H H ",
"8.K K K H K 5.8.S @ ..%.R.z.y.W.^.P.T 2 /.iXwX5X4X4XeXuXrX{.J.| G.B.u.Q.^.T.s.$.O K K 5.5.5.K 8.5.5.",
"H 5.K %X%X5.G K F & X.3.g.m t.^.~.f W A.~.0X0X0XiXwXwXrX|.^.x.e V.l.m Q.^.g.` O.& 8.G 0.5.J 5.5.0.5.",
"0.%XH 5.G K %XJ &Xr - &.` ' D.^.,.*.^.^.m.J.^.^.P.P ~ J.G.^.l.l.^.^.^.R.h.%.&.- t K 5.H 5.8.0.G 0.%X",
"0.8.5.5.5.5.5.8.K V 0 [ $.s.d.R.Y.K.(.^.n.*.^.^.A.~ ^.*.>.[.J.^.^.^.!.f.=...a 9 A K 8.K 5.5.8.K 5.K ",
"8.5.0.5.5.H 5.K 5.K z : ..&./ s.a.6.;.^.P.J.^.G.V.^.^.W._.-.=.^.^.^.R.! u l o K 8.K K G K K H 5.5.5.",
"H 0.0.8.5.5.5.K %X%XH t - [ } ( j.(.P.^.^.^.^.%.Y ^.~.~.^.D.I.^.^.R.d. ...$ V 5.0.K 5.%X0.H 5.%X5.K ",
"5.K H H 5.8.5.0.5.0.K 0.N > o.} ( d.E.^.^.^.^.~ ! H.u H.^.!.g.p.p.p.` } : V K 5.K 5.5.G 8.5.H K 5.J ",
"J 5.K 8.H 5.S 0.K 5.5.5.q.8 : s %.s.d.T.T.R.R.R.Q.K. .P.!.S.p.p.p.^ I & 8 q.K K K 5.0.0.0.5.&X0.0.5.",
"G K K 5.G 0.5.K 0.&X5.5.8.K A 0 * s.p.p.p.p.s.d.d.g.f.g.d.p.` W = # y B J 8.8.%XK H 5.8.K 8.5.0.G %X",
"H 5.0.5.5.5.K K 5.%XK 5.5.5.K A y 2 ) _ T } &.&.{ a.s.p.p.` W # % B F 0.8.5.5.5.0.K 5.K K K 8.K 0.5.",
"0.5.K K 5.5.H 5.K 5.5.5.K K 0.5.5.F z 7   ; i p a d 5 U U 1 9 G %X5.H 5.%XH K 0.K 0.K 0.0.0.5.5.%X5.",
"8.K 0.8.5.0.%X0.5.0.H K 5.K 5.5.5.K 0.5.K 5.B 7 o 9 6 .   C &XK 0.%XK #XK 5.K K 5.K 5.5.0.K 5.G F 8.",
"K 5.%X8.5.5.5.5.8.%X5.K 0.J H 5.5.%XK 5.5.5.8.5.5.0.0.8.5.F 0.5.5.K K 5.K H G 0.0.5.5.%XJ 0.%X0.0.5.",
"5.K 5.K K 5.H K 5.8.K 8.5.K #X5.5.K &X8.K 5.8.5.F G K K %XK 5.%X8.5.H 5.%X0.G K 5.8.H K K 8.5.0.8.K ",
"5.5.H 5.5.K 0.8.0.K 5.K H 8.0.K K K K K 5.8.H 5.5.8.5.H 5.K 5.K K 5.5.5.K 8.K 5.0.5.5.5.G %X#X8.K 5.",
"q.8.5.5.q.K 5.K J 5.5.5.5.H K H G 5.K H 5.K K 8.5.G K 5.5.&X5.5.&XK K H K K %X0.K K K 8.H 5.0.%X0.5.",
"H 5.5.5.5.H 5.5.5.G K 5.0.F 8.8.5.8.K K %XK 5.5.H 0.%X5.%X5.K &X5.K K K %XK K J G K 0.F q.5.0.H K 5.",
"5.5.0.8.5.5.K 5.H %X5.5.%X0.0.5.5.5.K 8.H 5.5.5.5.K K 5.K H H 5.5.G K 5.5.0.J 0.5.5.0.K K G F 5.5.K ",
"5.5.H H H K K %XK G 5.%XK 0.K H 0.5.K 8.H 5.K 5.8.5.5.5.5.5.0.0.5.5.5.K G %X0.0.8.5.5.%X%XK 5.5.5.K "
};
