/* XPM */
static char *cb46f6a2cbd34fa6a1b88b8ea6eb5013[] = {
/* columns rows colors chars-per-pixel */
"50 50 198 2 ",
"   c #1D1817",
".  c #3E1A06",
"X  c #341F14",
"o  c #25140C",
"O  c #2A231C",
"+  c #342116",
"@  c #33251A",
"#  c #3B2113",
"$  c #282C24",
"%  c #323E3D",
"&  c #343836",
"*  c #35322B",
"=  c #411906",
"-  c #501E04",
";  c #4C210B",
":  c #5A2307",
">  c #5C2D16",
",  c #5A331D",
"<  c #462513",
"1  c #692908",
"2  c #742A02",
"3  c #773009",
"4  c #7B3209",
"5  c #6A3417",
"6  c #6A3317",
"7  c #38423A",
"8  c #7E4323",
"9  c #333E40",
"0  c #1E5254",
"q  c #2A4A4A",
"w  c #364345",
"e  c #3C4F53",
"r  c #395456",
"t  c #2D5657",
"y  c #3C6C6C",
"u  c #366E6E",
"i  c #3E706F",
"p  c #377777",
"a  c #444847",
"s  c #444948",
"d  c #495858",
"f  c #595A56",
"g  c #5B5D59",
"h  c #545956",
"j  c #5D605D",
"k  c #6E655C",
"l  c #4B6467",
"z  c #586664",
"x  c #5B7A7F",
"c  c #54767D",
"v  c #497578",
"b  c #656967",
"n  c #656B68",
"m  c #6B6D6A",
"M  c #766D65",
"N  c #6E716D",
"B  c #6A7766",
"V  c #72736E",
"C  c #7D756B",
"Z  c #7A7569",
"A  c #6A7A78",
"S  c #737672",
"D  c #767975",
"F  c #797C76",
"G  c #777C79",
"H  c #7B7E79",
"J  c #81340A",
"K  c #8A380E",
"L  c #88380E",
"P  c #823711",
"I  c #893C15",
"U  c #893D18",
"Y  c #853E19",
"T  c #953F14",
"R  c #903F19",
"E  c #8E421B",
"W  c #86401B",
"Q  c #964115",
"!  c #994315",
"~  c #93441C",
"^  c #9B461A",
"/  c #9F491C",
"(  c #A1481B",
")  c #AB4E1D",
"_  c #8A4522",
"`  c #9B4B24",
"'  c #9A4E29",
"]  c #964C28",
"[  c #9E502B",
"{  c #875939",
"}  c #AA4E20",
"|  c #A44F24",
" . c #AB5021",
".. c #A3532D",
"X. c #AE562B",
"o. c #A35631",
"O. c #AC5730",
"+. c #AC5A35",
"@. c #AC5D39",
"#. c #B55B31",
"$. c #BA5E33",
"%. c #B25F39",
"&. c #B15527",
"*. c #A9603C",
"=. c #B4623F",
"-. c #BC643D",
";. c #BD6130",
":. c #CA6431",
">. c #C36437",
",. c #D86F3C",
"<. c #D9703C",
"1. c #805A46",
"2. c #805A48",
"3. c #935F46",
"4. c #826757",
"5. c #926148",
"6. c #A96242",
"7. c #B56442",
"8. c #BB6745",
"9. c #BC6846",
"0. c #BB6B47",
"q. c #BF704F",
"w. c #BD785A",
"e. c #81776C",
"r. c #807A6D",
"t. c #C36740",
"y. c #C36B46",
"u. c #CC6D46",
"i. c #C96E48",
"p. c #D36F46",
"a. c #D27146",
"s. c #DB7646",
"d. c #D7774A",
"f. c #D67A50",
"g. c #E27646",
"h. c #E67946",
"j. c #E87A47",
"k. c #7E817C",
"l. c #81837E",
"z. c #BA8067",
"x. c #D4825B",
"c. c #D28965",
"v. c #5A7A80",
"b. c #577E83",
"n. c #2E8988",
"m. c #3C9395",
"M. c #3AA4A6",
"N. c #38AAAB",
"B. c #37ABAC",
"V. c #3DB1AE",
"C. c #418787",
"Z. c #56868C",
"A. c #4C9799",
"S. c #65878C",
"D. c #798482",
"F. c #648B91",
"G. c #6E969D",
"H. c #6C989F",
"J. c #709698",
"K. c #489EA0",
"L. c #6B9BA2",
"P. c #6D97A1",
"I. c #4BA6A9",
"U. c #54A3A6",
"Y. c #49AFB1",
"T. c #49BABA",
"R. c #58B5B8",
"E. c #69A4AB",
"W. c #66A9AE",
"Q. c #68A8AE",
"!. c #67A2A7",
"~. c #65ACB2",
"^. c #62B5BA",
"/. c #63B7BC",
"(. c #47BEC1",
"). c #48BEC1",
"_. c #5EBFC2",
"`. c #61BCC2",
"'. c #46C1C3",
"]. c #44C9CA",
"[. c #47C8C9",
"{. c #5EC6C9",
"}. c #5DCACC",
"|. c #5FC6C7",
" X c #5ACFD3",
".X c #4ED3D3",
"XX c #5AD7D9",
"oX c #59DADC",
"OX c #5AD6D8",
"+X c #60C6CA",
"@X c #59DFE0",
"#X c #55E4E4",
"$X c #52F3F4",
"%X c #828681",
"&X c #858681",
"*X c #838681",
"=X c #858982",
"-X c #898D85",
/* pixels */
"l.l.l.k.l.l.k.=XF k.%Xl.&Xk.l.l.k.l.D H D k.% % % % % h k.H k.S H %Xl.k.l.H l.H F k.%X%Xk.l.%Xl.l.H ",
"k.H &XH H F =XD k.l.k.G H %Xl.k.&XF S m 0 0 $XoX@X@X#X'.0 t n k.l.&XH l.G l.k.l.l.k.l.F H H F F k.k.",
"k.%XH H H l.k.k.S D.l.H %XF H D k.h i n.|.{.}.^.G.P./.{.{.R.n.d j S l.l.l.S k.&XH l.S =Xl.k.k.l.l.l.",
"H H H k.l.H %XH %Xk.l.k.&XH G z q Y..X{.G.G.!.K.c c I.L.G.L. X[.A.q S H k.F F F k.l.F H k.%Xk.k.k.k.",
"H l.-Xk.H F k.k.H H l.H l.&Xz V.#XL.G.`.U.w & = . . . 9 r R.~.G.Q.#Xp V l.%XH &XD F F k.H H k.F l.k.",
"l.&XF k.%XH H k.H k.l.l.F b C.^.{.E.S.w 7 - : J 4 4 3 : ; 7 d F.^.`.R.y n H H l.k.H l.H H =XH k.S k.",
"k.l.l.k.k.k.F k.H H G H z m.W.G.L.v X : 3 ~ T a.7.7.@.I ^ 2 ; * A.L.L.R.C.S l.l.k.k.l.k.k.H k.H G k.",
"%Xk.H k.l.H %Xk.H %XH F t .X^.G.d : J [ @.u.Q s.8.8.=. .s.-.~ 3 < l L.{.[.d k.F H l.H H k.H %XH H H ",
"l.%XH k.k.k.l.F l.l.-Xh Y.W._.l ; K <.9.9.u.Q s.8.8.=. .a.u.t.$.2 # A.^.~.p m k.l.k.H k.H H H =Xl.D ",
"H H l.k.k.l.D k.H =XS y R.L.S.X I Q j.u.i.u.Q s.9.y.7.} a.i.p.>.T I & G.L.I.l H k.F k.S k.H l.D G %X",
"H H l.H H &XH H =Xk.n m./.Q.w 1 ..^ s.u.i.y.Q s.u.i.=. .a.y.p.%.)  .; v ~.}.y S %XH H H k.k.k.l.k.k.",
"=XH H H k.H k.k.k.l.q }.+XU.* Y 9.^ s.u.u.y.Q s.u.i.=. .a.9.u.%.) a.: 7 R.^.T.e H l.k.k.H H l.H k.H ",
"H D k.l.%XH H k.H D q }.G.l : +.9.^ s.y.u.9.Q s.u.i.=. .a.8.i.%.) a.] o v.L.T.e k.k.k.%Xk.k.F H H k.",
"k.S %XH H k.l.k.k.m p ^.F.s 1 =.9.^ s.9.u.8.Q s.u.i.7.} a.8.i.>.) a.o.= d H.R.i S H k.k.k.l.l.l.&XH ",
"k.k.F l.l.l.k.F %Xs ].oXY.@ &.9.8.^ s.9.y.9.Q h.u.i.-. .a.8.i.>.) a.7.P $ oX#XN.j l.k.k.k.D N H l.H ",
"H F %Xk.k.l.l.H V s '.W.Z.+ :.y.8.^ s.9.9.8.Q j.y.i.-.} a.8.i.-.) a.9.U O W./.M.g k.D l.l.k.k.H F l.",
"l.l.l.S F H F %XF a (.G.A > ( ` ` I | ` ` ` L  .` ` ` T | ` ` ~ T | ` P , G.W.M.j F k.S l.k.F %Xl.=X",
"H H F H l.k.F l.H s '.W.{ ,.<.s.s.<.<.<.d.<.<.<.<.d.<.<.<.s.d.<.<.<.d.<.>.B `.M.g H F H k.k.k.H H H ",
"G H %XH H H k.%X=Xs ].}.{ s.y.w.w.y.y.y.z.0.y.y.q.w.y.y.y.q.w.y.y.y.z.y.=.B XXN.f k.k.F l.k.&X%XH k.",
"k.l.F l.l.&Xk.%Xk.s (.G.M _ I I I I I I I I I I I I I I I I I I I I I I 8 D.Q.M.f H F l.D l.H k.D &X",
"k.l.k.F l.H k.k.F a (.G.x # Q ~ E J / ~ E E J ( ~ E ~ K ~ E ~ I L ^ ~ 4 @ G.W.M.g -XH k.k.l.l.k.H l.",
"H l.k.k.k.k.k.H k.s ].}.I.@ :.9.9.^ h.u.9.8.Q h.9.9.t. .a.8.9.@.) a.u.U $ }.OXN.f H H k.l.&X&Xl.l.H ",
"k.H F l.k.l.%Xl.H s '.E.Z.+ :.0.7.^ s.u.9.8.T h.u.9.t. .a.8.8.@.) g.u.U O E.^.M.f l.l.H H H H l.k.H ",
"D.F l.%XF k.F k.F s (.G.x X >.4.k E s.u.i.8.Q s.u.i.t. .a.9.y.@.} g.i.R O G.Q.M.j k.H l.l.V G k.k.k.",
"=XF H k.k.k.k.k.l.a (.L.b.+ ;.M N W s.9.u.9.T s.u.p.8. .a.9.i.@.} g.i.R O L.~.M.f l.k.H H H D =XH F ",
"l.k.l.k.H H F H H a ].XXY.@ :.5.k ^ s.9.u.y.Q s.y.p.-. .a.y.i.@.} g.u.R $ XX@XB.g l.H %XD l.D F l.k.",
"l.k.k.l.H l.%Xl.l.s (.G.v.X :.3.k ^ s.9.i.y.T s.y.p.8. .a.y.i.@.} g.u.U O G.Q.M.g &Xl.k.H k.k.H k.G ",
"H k.k.l.D %XH F H s (.G.x X :.3.1.^ s.9.i.i.Q s.y.p.8.} a.y.i.@.} a.u.U O G.Q.M.g H F H l.l.l.H D H ",
"k.F l.H k.H H H &Xs [.}.U.@ :.3.1.^ s.9.9.u.T s.y.p.8. .a.u.u.%.} a.u.U $ }. XN.g F l.l.k.%Xk.&Xl.F ",
"F =Xl.k.H k.l.H k.s '.Q.Z.+ ;.M m W s.8.9.u.Q s.y.p.8.} a.u.p.%.} a.a.U O Q./.M.g l.%XH H F k.k.k.l.",
"&Xl.%Xk.l.l.k.H &Xa ).G.v.X >.4.k E s.9.8.u.T s.9.i.7. .a.u.u.%.} a.u.U O G.W.M.g l.F k.l.k.k.H F F ",
"l.H H H F H k.l.F s '.!.Z.+ :.7.6.^ s.9.8.u.Q s.8.9.=.} s.u.u.%.} a.y.U O E.^.M.f H H k.k.k.H l.k.k.",
"F k.H %X&Xk.D H S s ]. XI.@ :.y.9.^ s.8.8.u.Q s.8.8.=.} s.y.u.-.} a.9.U $  XXXN.j l.D l.k.G k.k.l.k.",
"l.%XF k.D H %XG =Xa ).G.x X :.y.9.^ s.9.y.i.Q s.8.8.=.} g.i.y.-.} a.9.U O G.Q.M.f H k.F k.l.l.D l.%X",
"l.l.k.k.k.k.k.l.H s (.G.V Y ^ ^ ^ Q ( ^ ^ ^ T ( ^ ^ ^ Q ( ^ ^ ^ Q / ^ T 8 S.Q.M.g H l.H k.k.l.H k.H ",
"l.k.l.k.k.F k.H k.a ].{.{ g.s.x.x.s.s.s.c.s.s.s.f.c.s.s.s.f.x.s.s.d.c.s.>.B XXN.g H H D H H F k.k.k.",
"F l.l.l.k.k.k.H &Xs '.!.{ >.@.@.*.@.@.+.6.@.@.@.@.*.@.@.@.@.@.@.@.@.6.@.o.B ^.M.g H k.%Xl.F k.%Xk.H ",
"k.H F F k.l.k.l.k.s ).G.A > 2 2 2 2 2 2 2 2 2 2 2 2 2 2 2 2 2 2 2 2 2 2 , J.Q.M.g k.k.D l.k.F H k.G ",
"G k.H l.F k.V l.H s (.L.b.X  .#.O.I $.o.O...K $.O.O.[ ! #.O.O.` Q #.o.P O L.~.M.g k.l.l.l.k.=Xl.l.k.",
"D H H k.D l.k.H l.s ].XXY.@ :.u.i.^ s.9.u.8.Q s.u.u.8. .a.i.u.%.} a.9.U $ XXoXB.g F k.l.H l.k.l.D %X",
"F k.l.k.k.k.H H k.s (.G.v.X :.u.u.^ s.u.y.8.Q s.u.i.8.} a.y.u.@.} a.9.U O G.Q.M.g H k.H H H l.H l.k.",
"l.k.H H k.k.F k.H s (.G.v.X :.y.u.^ s.u.9.9.Q h.u.i.t. .a.9.9.@.} a.9.U O G.Q.M.f l.H l.l.l.k.k.%Xk.",
"l.H l.l.k.l.&Xl.k.b u e w   _ [ ' 6 X.' ' ] > X.' ' ] 5 ..' ' _ 5 ..] >   e r y V H k.k.l.H k.D S l.",
"H k.%Xl.k.k.k.k.l.%XN m N m M C e.V C C r.C V C e.e.C Z e.M e.C V C C V m m b D l.k.k.%XG l.%Xl.l.k.",
"k.H k.H H k.F H k.l.H l.k.H %Xk.k.H =Xl.H k.l.k.S D H H %XH k.%Xl.k.F k.%Xl.D H k.l.F H H l.k.l.l.H ",
"k.k.F k.k.H l.l.l.H k.H F l.l.H H H H H k.l.F k.l.l.k.F k.H k.H H k.k.k.H l.H k.l.k.k.k.D %X%Xl.H k.",
"l.l.k.k.l.H k.H G k.k.k.k.F H F D k.H F k.H H l.k.D H k.k.=Xk.k.=XH H F H H &Xl.H H H l.F k.l.%Xl.k.",
"F k.k.k.k.H k.k.k.D H k.l.S l.l.k.l.H H &XH k.k.F l.%Xk.%Xk.H =Xk.H H H %XH H G D H l.S l.k.l.F H k.",
"k.k.l.l.k.k.H k.F %Xk.k.&Xl.l.k.k.k.H l.F k.k.k.k.H H k.H F F k.k.D H k.k.l.G l.k.k.l.H H D S k.k.H ",
"k.k.F F F H H &XH D k.%XH l.H F l.k.H l.F k.H k.l.k.k.k.k.k.l.l.k.k.k.H D %Xl.l.l.k.k.&X&XH k.k.k.H "
};
