/* XPM */
static char *_2b47bf683ea40d593552aae7b9fbad0[] = {
/* columns rows colors chars-per-pixel */
"50 50 202 2 ",
"   c #151616",
".  c #151718",
"X  c #151B1B",
"o  c #1C1E1E",
"O  c #191917",
"+  c #16201F",
"@  c #1B1F21",
"#  c #102829",
"$  c #1C2123",
"%  c #2B2E2E",
"&  c #232728",
"*  c #2A2E31",
"=  c #252E30",
"-  c #2E3634",
";  c #2D3A3D",
":  c #303735",
">  c #323D3D",
",  c #363734",
"<  c #3C2E25",
"1  c #572E16",
"2  c #4A2D1D",
"3  c #752C03",
"4  c #7A2F07",
"5  c #782F08",
"6  c #7E330D",
"7  c #653417",
"8  c #763513",
"9  c #442E20",
"0  c #72401D",
"q  c #5A4A3F",
"w  c #794E32",
"e  c #1E5254",
"r  c #204241",
"t  c #334649",
"y  c #3B4F53",
"u  c #2D5455",
"i  c #3A6A69",
"p  c #377776",
"a  c #2C7172",
"s  c #464B49",
"d  c #545552",
"f  c #575956",
"g  c #585B58",
"h  c #52544F",
"j  c #695A4F",
"k  c #426869",
"l  c #5C6865",
"z  c #4F796D",
"x  c #6B6D69",
"c  c #666A65",
"v  c #6E716C",
"b  c #697765",
"n  c #71736D",
"m  c #7D7469",
"M  c #6F7772",
"N  c #747673",
"B  c #767A75",
"V  c #797B76",
"C  c #777C79",
"Z  c #7B7E79",
"A  c #83360D",
"S  c #88380E",
"D  c #853A13",
"F  c #8C3C14",
"G  c #8A3F1A",
"H  c #913F14",
"J  c #8C411B",
"K  c #894317",
"L  c #994216",
"P  c #93421B",
"I  c #9C461B",
"U  c #934015",
"Y  c #A1491D",
"T  c #A94E1F",
"R  c #864A28",
"E  c #9A4A21",
"W  c #964C27",
"Q  c #98522D",
"!  c #865233",
"~  c #965D3D",
"^  c #AA4E20",
"/  c #A44C20",
"(  c #A95427",
")  c #BC5D2D",
"_  c #B65626",
"`  c #A85B37",
"'  c #B45F32",
"]  c #96633B",
"[  c #BC6337",
"{  c #B8723F",
"}  c #A46233",
"|  c #C35F2D",
" . c #C9632E",
".. c #C7612D",
"X. c #CC6531",
"o. c #CE6935",
"O. c #CC6C3E",
"+. c #C56437",
"@. c #D36D3E",
"#. c #D96F3E",
"$. c #D56A33",
"%. c #D5713C",
"&. c #DA703D",
"*. c #E2733A",
"=. c #835A43",
"-. c #85634D",
";. c #886957",
":. c #946A50",
">. c #B4694A",
",. c #B96744",
"<. c #BE7746",
"1. c #AB6E53",
"2. c #AB745A",
"3. c #BA7556",
"4. c #A56344",
"5. c #806F60",
"6. c #867B70",
"7. c #B67C63",
"8. c #C66941",
"9. c #CB6B41",
"0. c #C56A44",
"q. c #D26E40",
"w. c #CB7449",
"e. c #D47242",
"r. c #DA7545",
"t. c #D7784B",
"y. c #C87753",
"u. c #E47745",
"i. c #E67945",
"p. c #EC7C46",
"a. c #F37E43",
"s. c #7E817C",
"d. c #81837E",
"f. c #928A7E",
"g. c #A28D63",
"h. c #B8826A",
"j. c #D8975A",
"k. c #F48245",
"l. c #FE8547",
"z. c #FD8F4E",
"x. c #FE8648",
"c. c #FD904E",
"v. c #FE8F50",
"b. c #FC9251",
"n. c #E79A58",
"m. c #FDA45F",
"M. c #CF9A64",
"N. c #DD9C61",
"B. c #D69B63",
"V. c #E39E62",
"C. c #E89F62",
"Z. c #FCA461",
"A. c #F1B167",
"S. c #E9A062",
"D. c #5D7E84",
"F. c #3E8485",
"G. c #319292",
"H. c #389091",
"J. c #3CACA9",
"K. c #5A838A",
"L. c #588B91",
"P. c #4A9498",
"I. c #579298",
"U. c #6A888D",
"Y. c #7E8380",
"T. c #658B92",
"R. c #6D969D",
"E. c #63A49B",
"W. c #6B9BA2",
"Q. c #4DACAD",
"!. c #51A6AA",
"~. c #4DB6B7",
"^. c #5BB5B9",
"/. c #49AFB0",
"(. c #69A5AB",
"). c #66A9AE",
"_. c #68A4AA",
"`. c #66ADB3",
"'. c #6BABB0",
"]. c #63B4BA",
"[. c #62B6BA",
"{. c #5EBEC2",
"}. c #61BEC3",
"|. c #4DC2C3",
" X c #5DCACD",
".X c #5DC7C6",
"XX c #5BCED2",
"oX c #4ED4D4",
"OX c #5AD4D6",
"+X c #5ADADC",
"@X c #59D7D9",
"#X c #64CBCA",
"$X c #58DEE0",
"%X c #55ECED",
"&X c #56E2E2",
"*X c #55EEF0",
"=X c #53F4F4",
"-X c #858681",
";X c #838681",
":X c #858983",
">X c #898B84",
",X c #898C8C",
/* pixels */
"d.d.d.s.d.d.s.:XV s.;Xd.-Xs.d.d.s.d.B Z B V > > > > , w ! R ! m C ;Xs.s.d.Z d.Z V s.;X;Xs.d.;Xd.d.Z ",
"s.Z -XZ Z V :XB s.d.s.C Z ;Xd.s.-XV B l e e =X+X$X.X] k.n.( r.R f.;Xs.d.C d.s.d.d.s.d.V Z Z V V s.s.",
"s.;XZ Z Z d.s.s.N Y.d.Z ;XV Z B s.g i H..X.X X`.U.~ k.m.w.T r.H ~ m d.s.d.N s.-XZ d.N :Xd.s.s.d.d.d.",
"Z Z Z s.d.Z ;XZ ;Xs.d.s.-XZ B l u Q.oX}.W.R.P.P.w a.b.n.O.T i.I e.R V Z d.V V V s.d.V Z s.;Xs.s.s.s.",
"Z d.>Xs.Z V s.s.Z s.d.Z d.-Xl J.@X_.R.}.!.t X X 8 x.A._ 9.T i.I r.D z v d.;XZ -XB V V s.Z Z s.V d.s.",
"d.-XV s.;XZ Z s.Z s.s.d.V l F.^. X).T.t r $ * 2 ..x.A._ @.T i.I r.D b i N Z Z d.s.Z d.Z Z :XZ s.N s.",
"s.d.d.s.s.s.V s.Z Z C Z l P.`.R.W.F.$ & % * * 1 *.b.j.( #.^ i.I r.F w ^.p v d.d.s.s.d.s.s.Z s.Z C s.",
";Xs.Z s.d.Z ;Xs.Z ;XZ Z u &X].R.y & * * * * < ( k.Z.<.^ #.^ r.I i.F ' E.oXs s.V Z d.Z Z s.Z ;XZ Z Z ",
"d.;XZ s.s.s.d.V d.d.>Xg /._.{.k & * * * * * 9  .l.Z.<.^ &.^ r.I i.F X.M `.p x s.d.s.Z s.Z Z Z :Xd.B ",
"Z Z d.s.s.d.B s.Z :XB i ^.R.T.@ * * * * * * 9 ..l.Z.<.^ #.^ r.I i.F X.n W.Q.g d.s.V s.N s.Z d.B C ;X",
"Z Z d.Z Z -XZ Z :Xs.c H.[._.t & * * * * * % P k.z.V.0.^ @.T i.I i.F u.R '. Xi C ;XZ Z Z s.s.s.d.s.s.",
":XZ Z Z s.Z s.s.s.:X#  X.XP.= % * * * * * % Y l.z.N.0.^ O.T i.I i.F i.J #X[.|.s Z d.s.s.Z Z d.Z s.Z ",
"Z B s.d.;XZ Z s.Z Z #  XR.y @ * * * * * * % Y l.z.N.0.^ O.T i.I i.F p.P > R.|.s s.s.s.;Xs.s.V Z Z s.",
"s.N ;XZ Z s.d.s.s.c a [.T.; & * * * * * * % Y l.%.{ W Y O.T r.I u.F i.J . R.^.k n Z s.s.s.d.d.d.-XZ ",
"s.s.V d.d.d.s.V ;X- =X+X~.. * * * * * * * % Y |  .$. .F U Y e.I r.D i.G X +X&XG.f d.s.s.s.B M Z d.Z ",
"Z V ;Xs.s.d.d.Z n - %X).L.. * * * * * * * % Y T &.0.y.%.$.I Y F +.A i.G . ).].G.f s.B d.d.s.s.Z V d.",
"d.d.d.N V Z V ;XV - %XR.D.. * * * * * * * % Y $._ W 2.>.3.t.t.| ) S ( 6 O R.(.G.g V s.B d.s.V ;Xd.:X",
"Z Z V Z d.s.V d.Z - =X`.I.. * * * * * * * % Y l.*.K 6 6 Q ` 2.y.y.e.&.^ 7 `.[.G.f Z V Z s.s.s.Z Z Z ",
"C Z ;XZ Z Z s.;X:X- =XXXQ.. * * * * * * * % Y l.z.j.E S S 4 J ( 1.3.3.y.0 XXOXG.d s.s.V d.s.-X;XZ s.",
"s.d.V d.d.-Xs.;Xs.- %XR.D.. * * * * * * * % Y l.z.V.0.^ [ L T 3 A G Q >.7 R._.G.d Z V d.B d.Z s.B -X",
"s.d.s.V d.Z s.s.V - %XR.D.. * * * * * * * % Y l.z.C.,.^ 9.T e.L ) 6 L 5 O R._.G.f >XZ s.s.d.d.s.Z d.",
"Z d.s.s.s.s.s.Z s.- =X XQ.. * * * * * * * % Y l.z.C.,.^ 9.T r.I r.D &.6 X  XOXG.d Z Z s.d.-X-Xd.d.Z ",
"s.Z V d.s.d.;Xd.Z - *X(.L.. * * * * * * * % Y l.z.M.j Q 9.T u.I r.D i.G . (.].G.d d.d.Z Z Z Z d.s.Z ",
"Y.V d.;XV s.V s.V - %XR.D.. * * * * * * * % Y l.z.g.,X-.9.T i.I r.D p.J . R._.G.g s.Z d.d.n C s.s.s.",
":XV Z s.s.s.s.s.d.- %XW.K.. * * * * * * * % Y l.z.g.,X-.O.T i.I r.D p.P . W.).G.d d.s.Z Z Z B :XZ V ",
"d.s.d.s.Z Z V Z Z - =X+X~.. * * * * * * * % Y l.z.B.h E &.T i.I i.F p.P X +X$XG.f d.Z ;XB d.B V d.s.",
"d.s.s.d.Z d.;Xd.d.- %XR.D.. * * * * * * * % Y l.z.V.q E &.T r.I i.F p.P . R._.G.f -Xd.s.Z s.s.Z s.C ",
"Z s.s.d.B ;XZ V Z : %XR.D.. * * * * * * * % Y l.z.V.q E #.T r.I u.G i.J . R._.G.f Z V Z d.d.d.Z B Z ",
"s.V d.Z s.Z Z Z -X- =X X!.. * * * * * * * % Y l.z.V.q E #.T u.I r.D i.J X  XOXG.f V d.d.s.;Xs.-Xd.V ",
"V :Xd.s.Z s.d.Z s.: *X).L.. * * * * * * * % Y l.z.M.j Q #.T i.I r.D p.P . ).[.G.f d.;XZ Z V s.s.s.d.",
"-Xd.;Xs.d.d.s.Z -X- %XR.D.. * * * * * * * % Y l.c.g.,X-.@.T i.I r.F p.P . R._.G.f d.V s.d.s.s.Z V V ",
"d.Z Z Z V Z s.d.V - %X_.K.. * * * * * * * % Y l.z.g.-X-.9.T i.I i.F p.P . _.`.G.d Z Z s.s.s.Z d.s.s.",
"V s.Z ;X-Xs.B Z N : =XXXQ.. * * * * * * * % Y l.z.B.=.E 9.T r.I u.F i.J X XX@XG.g d.B d.s.C s.s.d.s.",
"d.;XV s.B Z ;XC :X- %XR.D.. * * * * * * * % Y l.z.N.0.^ @.T r.I r.D i.J . R.(.G.d Z s.V s.d.d.B d.;X",
"d.d.s.s.s.s.s.d.Z - %XR.D.. * * * * * * * % Y l.c.V.9.^ &.^ r.I q.D X.U 7 U.(.G.d Z d.Z s.s.d.Z s.Z ",
"d.s.d.s.s.V s.Z s.- =XXXQ.. * * * * * * * % Y l.z.C.[ ^ q.^ X.S _ _ ..r.E b OXG.f Z Z B Z Z V s.s.s.",
"V d.d.d.s.s.s.Z -X- %X_.L.. * * * * * * * % Y l.c.V.` I _ L ) &.w.w.3.1.` x ].G.f Z s.;Xd.V s.;Xs.Z ",
"s.Z V V s.d.s.d.s.- %XR.D.. * * * * * * * % Y l.%.{ / Y o.i.y.>.7.4.( D 1 R.(.G.d s.s.B d.s.V Z s.C ",
"C s.Z d.V s.n d.Z - %XW.K.. * * * * * * * % Y |  .o.e.w.h.>.3.W G 4 3 3 . W.).G.d s.d.d.d.s.:Xd.d.s.",
"B Z Z s.B d.s.Z d.: =X+X~.. * * * * * * * % Y T #.>.h.` W 4 3 4 I 4 i.J + +X$XG.d V s.d.Z d.s.d.B ;X",
"V s.d.s.s.s.Z Z s.: %XR.D.. * * * * * * * % Y &.^ J G 3 3 H ) L u.F p.P . R.(.G.f Z s.Z Z Z d.Z d.s.",
"d.s.Z Z s.s.V s.Z - %XR.D.. * * * * * * * % Y l.&.D A L [ T u.I i.F i.J . R.(.G.d d.Z d.d.d.s.s.;Xs.",
"d.Z d.d.s.d.-Xd.s.c p y t   o o o o o o o o Y l.v.S.O.^ &.^ r.I i.F i.J   y y k x Z s.s.d.Z s.B N d.",
"Z s.;Xd.s.s.s.s.d.;Xx x v x c x v v x v v v Y l.b.V.0.^ &.^ r.I r.F o.;.x x c V d.s.s.;XC d.;Xd.d.s.",
"s.Z s.Z Z s.V Z s.d.Z d.s.Z ;Xs.s.Z :Xd.Z d.Y l.z.N.0.^ &.^ r.I O.! ;.s.;Xd.B Z s.d.V Z Z d.s.d.d.Z ",
"s.s.V s.s.Z d.d.d.Z s.Z V d.d.Z Z Z Z Z s.:XY l.z.N.8.^ 9.^ %.R :.d.s.s.Z d.Z s.d.s.s.s.B ;X;Xd.Z s.",
"d.d.s.s.d.Z s.Z C s.s.s.s.V Z V B s.Z V s.s.Y l.z.N.,.^ O.L ` 6.>XZ Z V Z Z -Xd.Z Z Z d.V s.d.;Xd.s.",
"V s.s.s.s.Z s.s.s.B Z s.d.N d.d.s.d.Z Z -Xs.Y l.z.N.,.^ [ =.5.:Xs.Z Z Z ;XZ Z C B Z d.N d.s.d.V Z s.",
"s.s.d.d.s.s.Z s.V ;Xs.s.-Xd.d.s.s.s.Z d.V d.Y l.z.N.` R ;.V V s.s.B Z s.s.d.C d.s.s.d.Z Z B N s.s.Z ",
"s.s.V V V Z Z -XZ B s.;XZ d.Z V d.s.Z d.V Y.~ _ _ } :.d.s.s.d.d.s.s.s.Z B ;Xd.d.d.s.s.-X-XZ s.s.s.Z "
};
