/* XPM */
static char *_c4c4ec94db347d481c30aa6e5942c0c[] = {
/* columns rows colors chars-per-pixel */
"50 50 31 1 ",
"  c #6D716E",
". c #73756F",
"X c #6F7372",
"o c #747673",
"O c #767A75",
"+ c #797C76",
"@ c #777C79",
"# c #7B7E79",
"$ c #7D7F7C",
"% c #7E7F7C",
"& c #7B8079",
"* c #7E817A",
"= c #7C807D",
"- c #7F817E",
"; c #7F857E",
": c #80807B",
"> c #81837D",
", c #82847F",
"< c #85867F",
"1 c #83887F",
"2 c #7E8380",
"3 c #7E8581",
"4 c #818380",
"5 c #828783",
"6 c #848581",
"7 c #838882",
"8 c #858881",
"9 c #878984",
"0 c #878C85",
"q c #898A83",
"w c #898F87",
/* pixels */
",,,-,,&7+-5>6*>,->o##%%,+->;5*-o#5:->#>%+-55*>5,>%",
"-#6%#+8O-,-@%,>*6+%5&#-+>#>o*+-3,6*,+,-,>-,++%++-;",
"*5###,**o3>%,+%+6,%-*+,#*#-*1-&5+#,->o-6%,o8,*->>,",
"##%*>%5#5->-<%#5,+5,#,-%-**+###>%O-#>+O+->+%-5**-;",
"%,w-#+*-#&>%>66+*##*-,+,-%*,>*-%%%6><5%6O++-##-+,-",
">6+*5##-#->>+%#+O>##,@%>5#,*#+>-,,%-###,-%,##8%*o&",
"*>,*-*+*##@%>o*5>>%#5#&6#>*>%6*%-9#5,>,,**>**%*#+-",
"5-#-,#5*#5#>,**,%%#-+>*5*%%8-%*->@56-#,+%>%#&#5%##",
"<4#-*&,+,,0>%-%+->>>+#&&o->5,-#-@;Oo>%>-,-#*##%8>o",
"%%>**,O-#7*O>%6>#,+,>>% #@O>>6,-#&>%-+,,*+-o-#>O@4",
"#%,%#6##7&>+%%o5%*>*%*,-%5*%*%+#;,<%@##55%#%-*->*-",
"8###*%;*->o%##9%#--#+&*#;-%#>+>>#,#8,8#%%>*-%%>%-#",
"%O-,5##&%o5+*-%%>%%*-O#+%@>8>>3#%+-%%-#7;*-5**+#%-",
"*o5#%-,*-*%%-#O%*,+-;+,>>#5%>>%--#*+#%,#*%-*->,>6%",
"-*+>>,-+5#o&+#,>*+8,#-5->%8**%#***%*;+#,3>---OX#,%",
"#+5-*,<%.*+#+5>#*#-*;*,,-%--5,+5*O#*-O----O,,*-%+,",
">>>o+%+5+#%>,+##o##,+&*-oq*>+%-+*,-O>,#-9+*O,-+5-8",
"%%+%,&+>#--#,o55-&*#>,,>+%+o#*>&*#5##>+*-%+#--*##%",
"@#4#%%-57--66>,-#-6%-:@@6,o;-%%O#@O-#%#+O;-+>*65+*",
"-,+>,6*5-*,>%>*##-%%*-%O8%:>,-*5,%%5*%->##+>O,#*o6",
"->*+>%--+#*><%>5>5%-&*@5-*#%%--+58*#%,5,-q#*->,-%>",
"#>&&--*#*%,-6>>>o++%#6%@-<,%*-&,-+%%-#;-@##->66>-%",
"-%+,&>5<%*.-6+5o*+>6#6#-5**&,#+**%#-O-%&+,>###%>-#",
"2+>5+-+*+&&>**;+,%5>8O%,>>,*#,;*%-O-%>>;,*%,>.@*-*",
"9+#-*--;,&*+>>*%4%%*##5>#>+#-**-;*%+%,>-#>-#%%O9%+",
">*,*%%+#%+6+o*6>>#5O,O+,*>*,*%%##%+6+o*5>-%5O,O+,&",
">-*>#,5,,-,++O>>6,-&--#-O>>->#,5,,--+#O>>6,-%--%*@",
"%*-,O5#+#<%>5>%--O%,*,+o#**-,O,*+#,&>5-%*%+%,>,#O#",
"-+,#*+#%6*#>%#+4+->*5*6>#-+>+-+#%6*#>%%+>+>>-5*6,+",
"+8<-%*,#*,%>#>6->5#%+>**;+8<-*%,#*,*>@-6>>5#%+-&*>",
"6>5*,,-%6+O#%-#*,#-,-*#++>%%%+>-%6+O%%-#*,+*>**#++",
",%%#+%-,+%->,5%+%#%**%,&,5+#6>%55#%>>>8%+%#&**%,-*",
"+-#56-O#o>O,->%6,@>-+**>;+*-*7%#%o>O,->%5,O>-@**>-",
">5+-O%5@8#%oq*<O#*O;,-O*O>>O*,>%+8#%+q-,+#*+;,>O>5",
">,***--,%*>#&#O&#,#--;%--#8%>o*o,%*>+#%O&#,#--,%-#",
",;>&*+-%-%O5>o-,*#o##+##-@###*,7%**+6>o-,%%o#%+&--",
"+>>,*--%65%8%**>%*,>+&5,,%*,-O#-O%*>-+-*>%-5>+-5-%",
"&#++-,->*-%>%#-%&&O,*+#%;;#>**-,,#*+>*#-%--O,*+%*@",
"+*#,+*.>#**-<##%%,>>-8>>#*>6>o###+6+o<##%*>>>*8>>-",
"o#%*O>*#>8-*,>6%+>,%,**O-6*6O555,*>#%,,5%+-,%,->O5",
"+->-*;#%*5#-**%>#-##%>#%*+,O;5&#+5&>,-**>#-%#%,#>*",
">-#%**+-%*--++>&*-:>>*->*-%->-#%5*+-5+#>%:%>>>*-5-",
",%>,&>6>->+#*%-**%>*#-o%*-#oo-8%>5%4#-%#*#**>#-oo,",
"%*5,-*-*,5*#>@+*-5#-;&,*->>,-o:**#%*%+O>-*-5@>5:>-",
"*#-##-+%*,#,*#4-&#8,#*,*oo#%5#&5,*+*5>O%*,+%#,->,%",
"&&+*-#>,>#&#+,>#%###-,+*-,*+-#*##-*-%,#->---O54,%&",
"<,--<#-#@;*;-+#+O*#+-%%,-O%;-8**8%%+#%6>%%#,+->5>*",
"+-*-*+*-*O#->o,,*,##6%--+>5-5-#7*#%%5%#@o#>o<->+%-",
"-*>,*;%-+5--6>>*-*%,+*-&*##*#++*-O#-&>@>;*>#%Oo--#",
"-*+++##6#O-5%>%+>-#,+-#*,*&-&*>>*--%O,>>,-&66#-**%"
};
