/* XPM */
static char *_f60bc005fd64c40b6e0f64a028038b2[] = {
/* columns rows colors chars-per-pixel */
"50 50 210 2 ",
"   c #17120C",
".  c #221F17",
"X  c #372916",
"o  c #362E18",
"O  c #3D331B",
"+  c #2A2A28",
"@  c #392D23",
"#  c #363328",
"$  c #35322C",
"%  c #3B352D",
"&  c #363334",
"*  c #3B3833",
"=  c #3C3C3C",
"-  c #402F14",
";  c #45371A",
":  c #45391B",
">  c #4C3B1A",
",  c #543F1A",
"<  c #483C26",
"1  c #543D21",
"2  c #433E3A",
"3  c #3F403F",
"4  c #4D401C",
"5  c #53431D",
"6  c #5B441C",
"7  c #5C4C1B",
"8  c #664D1C",
"9  c #6B531E",
"0  c #735C1D",
"q  c #4E422B",
"w  c #544323",
"e  c #5A4623",
"r  c #554B2C",
"t  c #464333",
"y  c #4B4435",
"u  c #43413D",
"i  c #4B463A",
"p  c #564B3B",
"a  c #59503C",
"s  c #624F25",
"d  c #685825",
"f  c #735722",
"g  c #624B33",
"h  c #665739",
"j  c #7B6522",
"k  c #796624",
"l  c #7C642C",
"z  c #766333",
"x  c #434342",
"c  c #4B4645",
"v  c #474846",
"b  c #494944",
"n  c #4D4D4C",
"m  c #524B43",
"M  c #4E504D",
"N  c #5B5545",
"B  c #51514E",
"V  c #535451",
"C  c #575856",
"Z  c #5A5955",
"A  c #5B5C5A",
"S  c #6B5941",
"D  c #695D44",
"F  c #745842",
"G  c #635D54",
"H  c #5E615D",
"J  c #66624E",
"K  c #76694A",
"L  c #63635D",
"P  c #6A655A",
"I  c #796752",
"U  c #636462",
"Y  c #666965",
"T  c #696B67",
"R  c #6C6C6B",
"E  c #6E726D",
"W  c #72746E",
"Q  c #78736D",
"!  c #747173",
"~  c #747673",
"^  c #767975",
"/  c #797B76",
"(  c #777B79",
")  c #7B7E79",
"_  c #836A1D",
"`  c #81711F",
"'  c #836524",
"]  c #896B24",
"[  c #8A7527",
"{  c #937525",
"}  c #997B2A",
"|  c #8E7C31",
" . c #947835",
".. c #A47F2D",
"X. c #866C49",
"o. c #8B7A54",
"O. c #8D755A",
"+. c #817E7A",
"@. c #7E817C",
"#. c #998427",
"$. c #AA832A",
"%. c #A68B28",
"&. c #B28E2E",
"*. c #B2912F",
"=. c #B8962B",
"-. c #BC9532",
";. c #E0AD1F",
":. c #C19B28",
">. c #CB9D2C",
",. c #C29A31",
"<. c #C9A929",
"1. c #CBAB2B",
"2. c #DEAD25",
"3. c #D3A42E",
"4. c #D9A62D",
"5. c #D3A92E",
"6. c #DDAB2A",
"7. c #D8B628",
"8. c #CCA333",
"9. c #D5A832",
"0. c #D9B638",
"q. c #E1AC25",
"w. c #E1AD2A",
"e. c #E4B325",
"r. c #EBBC24",
"t. c #E4B429",
"y. c #E5B829",
"u. c #E0BE3D",
"i. c #F6C91F",
"p. c #F5D01E",
"a. c #FED41E",
"s. c #EEC324",
"d. c #E8C729",
"f. c #EECB2A",
"g. c #F3C524",
"h. c #F4CC24",
"j. c #FACD23",
"k. c #F2C92B",
"l. c #F5D027",
"z. c #FDD322",
"x. c #FCD429",
"c. c #EFC736",
"v. c #FCD63A",
"b. c #F8D83D",
"n. c #9B8565",
"m. c #9E9467",
"M. c #80827D",
"N. c #82827D",
"B. c #82847F",
"V. c #83887F",
"C. c #A98F6B",
"Z. c #A4966C",
"A. c #B6976C",
"S. c #AB9B78",
"D. c #B99A72",
"F. c #BAAA68",
"G. c #B6A375",
"H. c #DEBC47",
"J. c #C5B26A",
"K. c #C7A67A",
"L. c #D0AB77",
"P. c #D3AE7C",
"I. c #CAB47E",
"U. c #D1B07B",
"Y. c #F2C540",
"T. c #FAD54A",
"R. c #FBDA59",
"E. c #F7DA66",
"W. c #E7D373",
"Q. c #FBE37A",
"!. c #7E8480",
"~. c #828680",
"^. c #838681",
"/. c #848681",
"(. c #858983",
"). c #8A8B83",
"_. c #8A8788",
"`. c #97908E",
"'. c #999697",
"]. c #A49F9E",
"[. c #A9A6A6",
"{. c #ADABAC",
"}. c #B0AFB0",
"|. c #AFB0B0",
" X c #B3B3B3",
".X c #B7B8B7",
"XX c #BCBCBC",
"oX c #D3AE81",
"OX c #C9B58B",
"+X c #C3BEBC",
"@X c #D5C390",
"#X c #F6DD8C",
"$X c #F9E389",
"%X c #C4C4C4",
"&X c #CECDCC",
"*X c #D4D3CF",
"=X c #D7D4D3",
"-X c #DAD3D3",
";X c #DDDCDC",
":X c #E0DDDE",
">X c #E4E3E4",
",X c #E9E6E6",
"<X c #ECEBEB",
"1X c #F1ECEB",
"2X c #EDF0EF",
"3X c #F3EFF0",
"4X c #EFF0F0",
"5X c #F5F4F3",
"6X c #F8F8F7",
"7X c #FEFEFE",
/* pixels */
"B.B.B.@.B.B.@.(./ @.^.M.^.@.M.B.@.M.^ ) ) ) ) B./ M.M.@.^.@.@.~ ) ^.M.@.M.) M.) / @.^.^.@.M.^.B.M.) ",
"@.) ^.) ) / (.^ @.B.@.( ) ^.M.@.^./ ) ^.@.) @./ M.) M.~ @./ @.!.B.^.@.B.( B.@.B.M.@.B./ ) ) / / @.@.",
"@.^.) ) ) B.@.@.~ !.M.) ^./ ) / ^.B.) @.@./ B.) @.) @.@.V.@.@.^./ ) B.@.M.~ @.^.) B.~ (.B.@.@.M.M.B.",
") ) ) @.M.) ^.) ^.@.M.@.^.) ) ^.B./ ^.B.) B.@.) @.@.@./ ) ) ) M.) ^ @.) M./ / / @.M./ ) @.^.@.@.@.@.",
") B.).@.) / @.@.) @.M.) M.^.^./ @.) ) @.@.B./ B.@.) Z = v * v / ) ) ^.M.V.^.) ^.^ / / @.) ) @./ B.@.",
"M.^./ @.^.) ) @.) @.M.M.) ) ) / ^ M.) ) B.( ) M.^.= / @.) x v + 3 A ) @.) ) ) B.@.) B.) ) (.) @.~ @.",
"@.M.B.@.@.@./ @.) ) ( ) M.~ @.^.M.M.) ) ^.) @.B t D K h % u T Y T ^ n ^.B.M.B.B.@.@.M.@.@.) @.) ( @.",
"^.@.) @.B.) ^.@.) ^.) M.B.@.@.B.) ) ) @./ E y $XT.z.z.a.z.x.1.O n ( x ^.@.) B./ ) M.) ) @.) ^.) ) ) ",
"V.^.) @.@.@.B./ B.B.).M.) @.) / @.M.M.M.~ D Q.x.a.a.a.a.a.a.a.s.; u C ^ M.) M.@.B.@.) @.) ) ) (.M.^ ",
") ) M.@.@.B.^ @.) (.@.^ M.) ^.M.) B./ B.$ $Xx.a.a.a.a.a.a.a.z.a.{ 8.& ) @./ B.B.@./ @.~ @.) M.^ ( ^.",
") ) B.) ) ^.) ) (.@.M./ ) ) ~ ^.) @.M.L @Xv.a.a.a.a.a.a.a.a.a.z.j.6.; T ( ) ) ^.^.) ) ) @.@.@.M.@.@.",
"(.) ) ) @.) @.@.@.M.~ ) ) ) (.) ) @.@.% Q.a.a.a.a.a.a.a.a.a.a.a.a.2.6.% B.(.) ) ) M.@.@.) ) M.) @.) ",
") ^ @.B.^.) ) @.) ~ ^./ @.@.) ) M.) T S.v.z.a.a.a.a.a.a.a.a.a.a.a.e.6.7 ) @.) (.@.@.@.^.@.@./ ) ) @.",
"@.~ ^.) ) @.B.@.@.@.) ) @.) ^ ) @.A G.Q.x.z.a.a.a.a.a.a.a.a.a.a.a.y.6.[ / ) B.) @.) @.@.@.M.B.M.^.) ",
"@.@./ M.M.B.@./ ^.) ~ @./ ) B.M.@.$ o.Z Q h 1.a.z.h.1.1.l.a.a.a.a.e.6.{ @.( ) B.!.M.@.@.@.^ W ) B.) ",
") / ^.@.@.B.V.) W @./ ) / ^.M.) @.& 6X7X7X5X%X:.d *X6X5X[.j a.a.z.2.q.7 M.^ @.@.@.@.^ B.B.@.@.) / B.",
"M.M.M.~ / ) / ^./ ) ) M.B./ ) ) U &X7X7X7X7X<Xx 7X7X7X7X6X>X%.a.j.6.t.# M.B.) @.(./ @.^ B.@./ ^.M.(.",
") ) / ) B.@./ M.) @.@.) B.~ ^.^.C 5X7X= 6X7X<X{.7X7X7X7X7X1XN z.g.6.:.L ) M./ @.@.) / ) @.@.@.) ) ) ",
"( ) ^.) ) ) @.^.(.@.@.^.^.M.B.@.H ;X7X;X7X7X>X>X7X7X7XR 7X<XV.z.2.e.< @.) ) ) / ^ @.@./ M.@.^.^.) @.",
"@.B./ M.B.^.@.^.@.@.B.M.) M.@.) ) x XXb m  X<X%X7X7X7X~ 6X<XL h.' 7.V ^.@.) @.M.) ) / M.^ B.) @.^ ^.",
"@.M.@./ M.) @.@./ ) @.M.V.) M.^.M.y D R.v.E.F.t 6X7X7X7X6X5Xj _ e > A ) ) B.^.B.@.).) @.@.M.B.@.) M.",
") M.@.@.@.@.@.) @.) B.@.^.M.M.M.^ N z a.z.z.z.k.G 6X7X7X5XJ 7.$., * V ) @.) @.@.( ) ) @.M.^.^.M.M.) ",
"@.) / B.@.M.^.V.) @.W @.^./ ^.^ 2 S.D ' 9.e.y.r.h.#.p a { z., q.  Y 3 @.^ @.) @./ B.M.) ) ) ) M.@.) ",
"!./ M.^./ @./ @./ @.@.M.@.@.@.& @XoXP.A.X.F F S g , %.a.a.z.6.9 . @.x @.) M.M.@.B.@.) B.M.W ( @.@.@.",
"(./ ) @.@.@.@.@.B.@.@./ M.@.T OXU.P.P.P.P.L.P.P.P.P.K.g 1.g.2.k.y.M R / ) B.M.@.) M.@.) ) ) ^ (.) / ",
"M.@.B.@.) ) / ) ) / B./ ~ ) P OXU.U.U.U.U.U.U.U.U.U.U.P.h 3.4.l -.& / ^./ ~ @.^.M.M.) ^.^ B.^ / B.@.",
"M.@.@.M.) B.L t z #.%.] B ~ O.P.U.U.P.P.U.U.U.P.U.U.P.U.P.6 6.w.8.A @.@./ ) ^ M.M.^.B.@.) @.@.) @.( ",
") @.@.B.^ b W.a.z.z.a.i.%.W L I K.P.U.U.P.P.U.P.P.K.I G n.X.*.; $ ) B.@.M.^.@.) @.) / ) B.M.B.) ^ ) ",
"@./ B.) E J.a.f._ 8 f 2.6.v / M.R V 2 m p p m G '.&X_.6X+.D.>.< ) ^.@.) M.) ) / M./ M.M.@.^.@.^.B./ ",
"/ (.V.@.v R.a.a.z.a.f.0 $.+ ~ @.M.^.E XX_.3X3X}.7X7X X7X/ D.>.y ) @.B.@.M.( @.^.M.M.^.) ) / @.@.@.M.",
"^.M.^.@.% v.a.=.$.6.q.6 d.y.d @.B.) T b Y 7X7XR 7X7X;X{.n.O.6.y ) ^./ ^ ) ) @.) @.B./ @.M.@.@.) / / ",
"B.) ) ) K x.a.z.j._ >.0 z.6.[ / ) ) % G.a Z P % N K C.P.P.1 6.t ^.) ) M.M.M.(.) / ) ) @.@.@.) B.@.@.",
"/ @.) ) m.z.a.a.z.e.e 8 w.' w ^.B.( Y a P.U.U.U.U.U.U.oXO.,.2.w ~ ~ M.^ B.@.M.) ^.B.^ M.@.( @.@.M.@.",
"M.^./ / F.z.r.4.4.w.o O X  .A ^ ) @.~ A @ P.U.U.U.U.U.O.$.g.q.9 R V.) ) / ).@.B./ ) @./ @.B.M.^ M.^.",
"M.B.@.V J.z.6.> >.,.] 3.{ B ^ @.) = '.5X*.j S C.A.I e 7.a.f.j ).;XA @.M./ ) ) ^ ) ) B.) @.@.B.) @.) ",
"B.@.W Z.c.a.z.3.8 } 8.z ~ ~ @.B.T {.+..Xf.a.a.f.d.d.1.[ p [.=X-X;X$ @.~ U = V U + 3 W ^ ) ) / @.@.@.",
"/ M.# R.a.a.a.i.6.} { c V = x x * =X! 5 z.a.a.a.d |.<X7X7X7X,X-X-X( =  X6X7X5X< { #.[ r u U @.^.@.) ",
"@.E I.x.a.a.a.z.t.6.w.n R :X7X<X].`.=X'.p.a.a.k >X7X) 7X7X7X5X-X+X) 7X7X7X7X%X-.r.a.a.a.z.7.e U @.( ",
"( x $Xz.a.a.a.a.z.r.9.k ..r 7XR Z ) 6X6Xd a.` ;X7X7XU 7X7X7X7X*XC 7X7X7X7X6X/.4.;.k.l.a.a.z.z.=.A @.",
"^ * E.a.a.a.a.a.a.g.8.5.r.*.,X7XR 7X7X7X'.k &X7X7X7X X<X7X=XR v  X%X<X6X7X<X^. .r J.T.a.a.a.a.a.%.W ",
"/ a b.a.a.a.a.a.a.j.&.f.j.6._.&X{.7X7X7X7X2X7X7X7X7X>XV _.[.i F.E.s.5 +X-X`.D W.v.a.a.a.a.a.a.a.z.u ",
"M.N x.a.a.a.a.a.a.j.' z.a.2.m v 6X7X7X7X7X7X7X7X7X7X7X6X_.OXT.z.a.a.g.f | $Xv.a.z.a.a.a.a.a.a.a.z.: ",
"B.y z.a.a.a.a.a.a.a.z.a.a.w.< [.7X7X7X7X7X7X7X7X7X7X5XN d Y.] u.a.a.z.r.s.z.z.a.a.a.a.a.a.a.a.a.g.5 ",
") * x.a.a.a.a.a.a.a.a.a.a.e.4 6X7X7X7X7X7X7X7X7X7X7X^.#X' ; E.a.a.a.a.z.i.z.a.a.a.a.a.a.a.a.a.a.2.< ",
"@.H 0.a.z.z.a.a.a.a.a.a.a.e.c 7X7X7X7X7X7X7X7X7X7X7XZ T.o E.a.z.a.a.a.a.a.a.a.a.a.a.a.a.a.a.a.r.w.v ",
"@.@.@ y.h.a.z.a.a.a.a.z.g.4.{.7X7X7X7X7X7X7X7X7X7X7X~ c.- z.s.l H.a.a.a.a.a.a.a.a.a.a.a.a.a.g.6.w ^ ",
"V.B.) @ 9.2.w.2.q.q.q.2.q.-.>X7X7X7X7X7X7X7X7X7X7X7X4X6 s 9.q E.z.a.z.z.a.a.a.a.a.a.z.a.z.r.w.6 R @.",
"/ @.@.@.V < [ :.1.3.&.' y = 4X7X7X7X7X7X7X7X7X7X7X7X7X<X'.* E.a.z.s.e.r.g.j.j.j.g.s.e.2.6.&.# R ) @.",
"@.@.M.B.@.@.) R Y E ) U R 6X7X7X7X7X7X7X7X7X7X7X7X7X7X7X>XM.l.j.>.] 2.6.2.w.w.t.t.5.} ; & Y ~ @.@.) ",
"@.@./ / / ) ) ^.) ^ V XX7X7X7X7X7X7X7X7X7X7X7X7X7X7X7X7X7X5X> 4.,.l q o A T A Z A Y ~ ^.^.) @.@.@.) "
};
