/* XPM */
static char *f99d6293c7104b1f99a677c2136e8269[] = {
/* columns rows colors chars-per-pixel */
"50 50 144 2 ",
"   c #353236",
".  c #373338",
"X  c #3A363B",
"o  c #3D3A3E",
"O  c #403C3F",
"+  c #3F3C40",
"@  c #423E42",
"#  c #464145",
"$  c #484447",
"%  c #474348",
"&  c #4A4649",
"*  c #4E494D",
"=  c #514C4E",
"-  c #4F4B51",
";  c #534E51",
":  c #565154",
">  c #595456",
",  c #5C5659",
"<  c #5E585A",
"1  c #625C5D",
"2  c #655F60",
"3  c #676162",
"4  c #6A6465",
"5  c #6D6768",
"6  c #6D6768",
"7  c #6E6869",
"8  c #6F6869",
"9  c #6F686A",
"0  c #6F696A",
"q  c #6F686A",
"w  c #70686A",
"e  c #70696A",
"r  c #70696B",
"t  c #71696B",
"y  c #716A6B",
"u  c #726A6B",
"i  c #716A6C",
"p  c #726B6C",
"a  c #736B6C",
"s  c #726B6D",
"d  c #726C6D",
"f  c #736C6D",
"g  c #736C6E",
"h  c #736D6E",
"j  c #746D6D",
"k  c #746D6E",
"l  c #756D6E",
"z  c #746D6F",
"x  c #756E6E",
"c  c #746E6F",
"v  c #756E6F",
"b  c #726C6D",
"n  c #756E70",
"m  c #756F70",
"M  c #766E70",
"N  c #766F70",
"B  c #766F71",
"V  c #776F71",
"C  c #766F70",
"Z  c #767071",
"A  c #777071",
"S  c #777171",
"D  c #777072",
"F  c #777071",
"G  c #787172",
"H  c #797172",
"J  c #797272",
"K  c #797273",
"L  c #7A7374",
"P  c #7B7374",
"I  c #7B7375",
"U  c #7B7475",
"Y  c #7C7475",
"T  c #7C7576",
"R  c #7D7576",
"E  c #7D7676",
"W  c #7D7677",
"Q  c #7A7474",
"!  c #7E7778",
"~  c #7F7778",
"^  c #7E7778",
"/  c #7F7879",
"(  c #7F7979",
")  c #7F7879",
"_  c #807879",
"`  c #807979",
"'  c #80797A",
"]  c #81797A",
"[  c #817A7A",
"{  c #817A7B",
"}  c #827A7B",
"|  c #827B7B",
" . c #827B7C",
".. c #837B7C",
"X. c #837C7C",
"o. c #847C7D",
"O. c #847D7D",
"+. c #847D7E",
"@. c #857D7E",
"#. c #857E7E",
"$. c #857E7F",
"%. c #867E7F",
"&. c #867F7F",
"*. c #877F7F",
"=. c #837C7C",
"-. c #867F80",
";. c #877F80",
":. c #877F80",
">. c #878080",
",. c #878081",
"<. c #878080",
"1. c #888080",
"2. c #888081",
"3. c #888181",
"4. c #888182",
"5. c #898182",
"6. c #898282",
"7. c #898283",
"8. c #8A8282",
"9. c #8A8283",
"0. c #8B8384",
"q. c #8B8484",
"w. c #8C8485",
"e. c #8C8585",
"r. c #8D8585",
"t. c #8D8586",
"y. c #8D8686",
"u. c #8E8687",
"i. c #8E8787",
"p. c #8B8383",
"a. c #8F8888",
"s. c #908888",
"d. c #908889",
"f. c #91898A",
"g. c #928A8B",
"h. c #928B8B",
"j. c #938B8B",
"k. c #948C8C",
"l. c #958D8D",
"z. c #968E8E",
"x. c #978F8F",
"c. c #928B8B",
"v. c #989090",
"b. c #999191",
/* pixels */
"; 2 1 3 2 2 2 1 , > > * ; ; ; : > , > > : : : ; ; ; ; > ; : > , , ; ; ; ; ; ; ; : > : : : : : ; * & ",
"> e V I T ! T I A p 4 > * ; e V T { { ....{ I v 6 * = 4 4 0 v A V V v p e 3 & ; 6 f K T T T A f 2 & ",
": p T ! %.%.%.%.{ I p 2 * , V ..w.j.k.k.k.w.0.! v = & 0 v ! %.-.-.2.%.{ A 4 * = e K { %.2.-...U 4 & ",
": e U { %.2.2.2.%.T v 3 * , U 0.k.k.b.b.b.k.j.%.A = & e I %.2.0.0.w.0.2.T 6 * = f T %.2.w.w.2.{ 6 & ",
"& 4 v I ! { { { / K v 2 * > A %.j.k.k.k.k.j.j.%.v = & 4 V T ..%.-.-.-.%.U 4 * = p T ..2.2.2.%.! 4 & ",
"& 1 4 0 f f v v p e 4 , & : 4 V { %.%.%.%.%.{ V 4 * $ < 3 0 v K I U I V 6 1 * * 4 v I ! { { T v 3 & ",
"& , 1 3 4 4 4 4 4 3 1 ; & * 2 4 e v v v v f 6 2 < % % ; , 1 4 4 4 4 4 1 < > % & 1 3 4 p f f 0 4 , % ",
"& ; > > < , , > > ; = $ & & : > , < < , > > > : & @ % $ & * * * = = = * & @ % % % & * ; ; : : ; & @ ",
"& % & & & & & & & & & & ; ; * * * * * & & & * * ; : : ; * & & & & & & * * - ; * & & * * * * * * * & ",
": 1 3 4 4 3 > * > 2 1 3 4 0 e v p 0 0 4 > * = 4 e v v K I I A v e 4 < & ; < 2 3 4 4 e v A v e 4 > % ",
"* 4 p V V 4 < $ < 6 V / %.2.2.q.2.-...! 3 = & 1 p I { %.,.,.X.T v 4 1 * ; 3 4 v K T { %.-.%.! A 3 % ",
"* 4 f A V 0 < % > f { w.j.j.j.a.w.w.{ K 0 * & 1 p { 2.w.w.w.,./ A 6 1 & = 4 f T { %.%.2.0.2...A 2 @ ",
"* 4 e v v 0 1 % : A %.w.j.k.j.j.j.w.,.{ e * & 1 f ! %.,.2.2.%.! f 4 < % * 4 A / X.%.%.%.%.X.! f 1 @ ",
"* 2 6 e 0 4 1 % * 0 U %.2.w.q.w.q.2.%.I 6 * & , 6 v T { { / U v 4 1 > % $ 2 0 A U T U U T U A 4 < @ ",
"& 1 1 2 2 < : @ # 1 4 f V K U U I I V e 3 & & = 2 3 e p e 0 4 3 1 , * @ @ > 1 4 6 0 0 0 0 4 3 1 : o ",
"& ; : : > : & @ o & ; : > 1 1 1 1 1 , > = % % @ * = ; ; * * * & $ @ o @ o & * ; ; > > : : ; = & @ X ",
"& @ @ @ % % % - % @ @ @ @ @ @ % & & & & & ; ; & % % @ @ @ @ @ @ % % % ; & % % % % % % % % % % % % % ",
": : ; ; ; ; ; : , 1 1 : * * : < 2 3 3 3 3 2 1 1 , > * ; : , 1 3 4 3 3 4 2 1 1 1 : * : > > < < 1 > & ",
"= 6 e K I T T T K p 6 , * * 4 0 A T T ! T T U K f 4 > * ; p v U ! / { { ! T I A p * : 4 6 e v v 4 * ",
"* 0 V T ..%.%.X...T K 2 = = 6 v T { %.%.%.%.%.{ T f 1 = ; p I X.2.2.2.2.2.,.%.T A ; ; e v K T I f * ",
"& 0 T %.2.2.-.%.%...I 3 * * p v T { ....%.%.%...! V 1 * ; f U %.2.w.w.w.w.w.2.{ K > ; f K T ! T v * ",
"& 4 A ! { { ! ! ! I f 2 & * 4 e A T T T ! ! T T A e 1 = ; 0 A { %.-.2.2.%.%.%.! v : * 0 v K U K 0 & ",
"% 1 4 f v v p p p 4 3 , $ & 2 2 6 p f f p p p e 4 3 > * * 2 4 f K T T T K T I f 4 = & 2 4 0 e 0 2 $ ",
"@ > 1 3 4 4 3 2 1 1 , ; % & , , 1 2 3 3 2 2 1 1 1 , = & % > , 1 4 4 4 4 0 6 4 2 < @ % > > 1 1 1 , @ ",
"o $ ; = = = * * * & $ % % & & ; : : : : ; ; ; = = * & * @ % & * ; ; = * = ; ; ; * @ % $ * * = = $ o ",
"* & * * * & * * * * - - : ; * * * * * * - * * * * ; ; ; * & & & & & % % & & % % & ; - & & & & & & & ",
", 4 v e 6 4 6 e 4 2 * = < 3 3 2 1 1 1 1 1 2 1 < = * ; , 3 3 4 4 2 1 1 1 > : * & ; > ; , < 1 1 1 > % ",
"> v A T / / T A e > & 1 p v I T U U U K K A v 4 1 * * 1 4 p A K I U U I K V e & & 3 2 6 p f p e 0 = ",
"; 6 v I T T T A p 1 & 1 p K ! { { { / T K V f 4 1 & & 4 4 f K U T / { / T I v : & 4 6 f A K A v 0 * ",
"& 4 p A I U K V 0 1 & > 6 f K T ! U I K A f 0 4 : % & 6 6 p v A K K K I U K f : & 4 0 V K K A f 4 & ",
"$ 1 4 e f f p 6 3 , % ; 3 6 0 e e p f p 0 0 4 1 ; @ & 3 3 4 6 e p p f v v p 6 * $ 3 4 0 f f e 4 1 % ",
"$ > 1 3 4 4 3 1 < ; % & < 1 1 1 2 3 2 2 1 1 < , * o % , > < 1 3 4 4 3 4 4 3 1 % @ > > < 1 1 1 < > @ ",
"% * > , < , > ; * % % @ & & * * * * * & & * = & @ @ X % & * = = = ; ; ; = * %   @ & * = : > : ; & o ",
"& % $ $ % % % % % % ; % @ @ @ @ @ @ @ # @ @ % % % - % @ @ + + + + o o o o X X @ * o X X o o o X o @ ",
": , , , , > > = : , > > > > > > : = * * & ; ; * = ; = = = = = = * * & * ; ; ; : > > > : > > > : = * ",
"> 6 e f p 6 3 % = 4 2 4 e f e 4 6 4 3 1 & * > 1 4 0 e p p f p e 0 4 1 $ = 2 1 4 4 v A I U U V e 2 $ ",
"* 4 f V v 0 3 % = 3 3 0 V K K v V f 0 3 * & , 2 0 v A K I I K V f 0 3 & & 1 2 4 p K T T ! U I v 4 % ",
"* 3 e V v 0 2 @ & 2 3 0 V K K A V v 6 2 * & > 3 0 v A K K K A v f 0 3 $ & 2 4 f A U T T T U K f 3 @ ",
"& 1 4 0 0 4 1 @ & 1 3 6 p f v f p 0 3 1 & $ : 1 4 0 p f f f p 0 0 4 1 @ % 1 3 0 f v V v v p 0 4 < @ ",
"% , 1 2 2 1 > @ % < 1 2 2 2 2 3 3 2 < > % % & > < 1 2 3 3 3 3 3 3 1 > o % : , 1 2 3 3 3 2 1 < > : o ",
"% : , 1 1 , : @ % ; > > > : > > < , : = O % % ; : > > > , , , < , > : X @ $ * = ; : : : ; * & $ % o ",
"@ @ % % % @ o @ % # & & @ o o @ @ @ @ o % - % o @ O o o o o o @ @ @ @ % & o X X   .           . X + ",
"; ; ; ; : : : : : : ; : : ; > , 1 1 > : : : : ; ; ; ; : : > > > , , < , , > : ; : : : , , > : : : * ",
"* 4 e v A K K v p 6 4 1 & * 3 4 f A K A V v p 0 3 $ * 1 p A T ! { ..{ T K 2 & : v v K T T ! ! K 4 % ",
"% 1 6 A T { { ! T K p 4 $ & 3 4 V A K A V f 0 3 1 O & , 4 f T ..%.%.%./ K 3 & ; e V ! ..%.%.{ K 4 # ",
"% 1 4 v T { { / / T V 4 $ & 4 3 v A A A A f 6 4 1 @ * < 4 e ! %...{ / K f 1 % = 4 e U ..%.{ K V 3 @ ",
"# , 1 4 f A K A A v e 3 % & 4 3 e f V A A p 4 2 > o & 1 4 v T T K A v f 4 , # * 3 0 v A K A f 0 1 @ ",
"@ = > < 1 3 3 4 4 3 1 , @ % 1 1 2 3 4 4 4 3 2 < > o % : 2 6 e 0 0 e e 6 3 > % * 3 4 6 0 0 4 4 2 > @ ",
"@ @ & * * * * * * & % @ o @ * * = ; : : : : : ; * X # % ; , 1 1 1 < > > ; % @ & : > , > , > > : % o ",
"#   . X o X o X X o o # - & + o o X X X X @ @ @ o % & o + @ @ # @ @ @ @ @ % ; & & @ @ @ @ @ @ @ o % "
};
