/* XPM */
static char *_ebe910abb8a413ebb74be9058cd3372[] = {
/* columns rows colors chars-per-pixel */
"60 60 224 2 ",
"   c None",
".  c #070B0E",
"X  c #0A140E",
"o  c #021308",
"O  c #0E1412",
"+  c #0B1911",
"@  c #1C1B1B",
"#  c #131816",
"$  c #0C0F12",
"%  c #201F1F",
"&  c #23231E",
"*  c #241D21",
"=  c #2A2324",
"-  c #2A2525",
";  c #33212B",
":  c #39242F",
">  c #3A332D",
",  c #3D2532",
"<  c #770703",
"1  c #482639",
"2  c #463A34",
"3  c #553B3C",
"4  c #7A1F2B",
"5  c #2E7800",
"6  c #4A7910",
"7  c #4C4239",
"8  c #56483C",
"9  c #5A5038",
"0  c #6E5834",
"q  c #6C682E",
"w  c #582C45",
"e  c #5B3643",
"r  c #632D4C",
"t  c #65374B",
"y  c #6D3452",
"u  c #7B355C",
"i  c #773759",
"p  c #7C2E62",
"a  c #367874",
"s  c #5D4B41",
"d  c #634343",
"f  c #685746",
"g  c #765B49",
"h  c #764353",
"j  c #77574E",
"k  c #756245",
"l  c #79644B",
"z  c #776352",
"x  c #6A7175",
"c  c #655C6C",
"v  c #980706",
"b  c #94131A",
"n  c #A20B0E",
"m  c #901C2F",
"M  c #A31C2B",
"N  c #8E2434",
"B  c #A02435",
"V  c #997629",
"C  c #926C31",
"Z  c #A57F2B",
"A  c #8C3356",
"S  c #873964",
"D  c #933B6D",
"F  c #983D6B",
"G  c #9B3D72",
"H  c #A53D7B",
"J  c #A63C6F",
"K  c #A12C47",
"L  c #875657",
"P  c #8E5252",
"I  c #85644C",
"U  c #876B56",
"Y  c #94695B",
"T  c #8B7458",
"R  c #967958",
"E  c #99486B",
"W  c #9A4675",
"Q  c #8F4F69",
"!  c #AB457D",
"~  c #A44875",
"^  c #B54474",
"/  c #AA5679",
"(  c #A54F6C",
")  c #937C64",
"_  c #8C6B71",
"`  c #AC646F",
"'  c #A3706B",
"]  c #A06A47",
"[  c #C1447F",
"{  c #379000",
"}  c #499801",
"|  c #4A8109",
" . c #45A100",
".. c #34847E",
"X. c #A28228",
"o. c #9E825A",
"O. c #A5875E",
"+. c #9D8868",
"@. c #A98965",
"#. c #B48C67",
"$. c #B99568",
"%. c #B69677",
"&. c #AB8E72",
"*. c #C59A6E",
"=. c #CB9A72",
"-. c #C69974",
";. c #D39D75",
":. c #D79F78",
">. c #CEA372",
",. c #C5A17E",
"<. c #DAA57A",
"1. c #DDAA7C",
"2. c #D6A579",
"3. c #DFB07C",
"4. c #E3AD7F",
"5. c #E0B07D",
"6. c #B33E84",
"7. c #B84787",
"8. c #A95887",
"9. c #B55687",
"0. c #BB5994",
"q. c #AF4081",
"w. c #99648B",
"e. c #867A88",
"r. c #B86297",
"t. c #AC6994",
"y. c #9E5A89",
"u. c #C44B8E",
"i. c #C54A91",
"p. c #CB4C93",
"a. c #CA4A9A",
"s. c #D34D9A",
"d. c #D44D99",
"f. c #C85699",
"g. c #DA529D",
"h. c #D45199",
"j. c #C2538D",
"k. c #C46298",
"l. c #DA4CA1",
"z. c #D658A6",
"x. c #C95AA1",
"c. c #E64EA7",
"v. c #E353A4",
"b. c #EC55AB",
"n. c #EB57AA",
"m. c #F459AD",
"M. c #F254AD",
"N. c #E859B3",
"B. c #F356B1",
"V. c #F65BB2",
"C. c #FC5CB3",
"Z. c #FF5EBA",
"A. c #FD56B5",
"S. c #C664A5",
"D. c #D568A8",
"F. c #DE6BB4",
"G. c #E56BBC",
"H. c #E966B6",
"J. c #F663B6",
"K. c #FA62B6",
"L. c #F563B9",
"P. c #FE62BB",
"I. c #F66CBC",
"U. c #FA6CBE",
"Y. c #F173BE",
"T. c #FF5CC3",
"R. c #FF63C2",
"E. c #FC6DC2",
"W. c #F86CC6",
"Q. c #EC73C5",
"!. c #F674C2",
"~. c #FA75C4",
"^. c #FB79C7",
"/. c #FE74CB",
"(. c #FE79CB",
"). c #F677C9",
"_. c #FF79D1",
"`. c #F36AC6",
"'. c #6D8281",
"]. c #889A9C",
"[. c #89A3A1",
"{. c #98A4AA",
"}. c #D9AB82",
"|. c #D4B08D",
" X c #E3AE81",
".X c #EBAF83",
"XX c #E6B182",
"oX c #EBB384",
"OX c #E5B589",
"+X c #ECBA8D",
"@X c #E8B88B",
"#X c #F4BB8B",
"$X c #E4BB92",
"%X c #EABD92",
"&X c #EEC196",
"*X c #EEC49A",
"=X c #F4C294",
"-X c #F1C69C",
";X c #F4C99E",
":X c #FACB9E",
">X c #F9C595",
",X c #F4CAA2",
"<X c #F8CEA6",
"1X c #FFD2A5",
"2X c #FDD3AA",
"3X c #F5D7BA",
"4X c #F9D7B6",
"5X c #EFCBA9",
"6X c #FA86CC",
"7X c #FF88D5",
"8X c #FA98D3",
"9X c #FCA5D8",
"0X c #F6B7DD",
"qX c #FCBAE4",
"wX c #FFA4E1",
"eX c #F6DDC6",
"rX c #F8E7D6",
"tX c #FCC6E5",
"yX c #FBD8ED",
"uX c #F7ECE3",
"iX c #FAF3ED",
"pX c #FBE8F4",
"aX c #FCFEFE",
"sX c #FDF4F9",
/* pixels */
"                                                                                                                        ",
"                                                                                                                        ",
"                                                                                                                        ",
"                                                                                                                        ",
"                                                                                                                        ",
"                                                                                                                        ",
"                                                                                                                        ",
"                                                                                                                        ",
"                                            + @ ; : , 1 1 , ; ; @ X                                                     ",
"                                    # , r D ! u.v.n.Z.P.C.C.n.g.u.! S w : #                                             ",
"                              # , u 7.n.Z.Z.P.Z.C.Z.[ ^ z.L.P.P.Z.Z.Z.Z.v.7.S 1 %                                       ",
"                          O w ! m.Z.Z.K.J.J.K.J.K.U.A v v m m N H.U.J.V.Z.Z.0.8.u 1 @                                   ",
"                      + 1 7.Z.Z.C.R.E./.(./.!.~.E.E.H.7.K M n N G.^.!.~.U.n.c [.{.e.D r X                               ",
"                    = D C.P.V.C.U.r.w.w.0.H.~.^.9XqXtX7X).Q.F.!.~.I.~.!.~.~.H.i.8._ p.R.! :                             ",
"                  1 h.P.C.V.U./.8.a a a ..c H.9XsXsXpX6X~.~./._./._._.(.~.~.^.^.R.M.C.V.P.n.y O                         ",
"              o r V.Z.C.U.~.~.^.F.W a.f.y.W I.~.I.U.K.U.~.~.!.9.` ` / k.!.~.!.~.!.~.U.V.C.A.R.W #                       ",
"            o i R.L.N.G.(.~.~.E.~.wXyXqX/./.^.U.A.V.C.V.V.R.f.q V V Z 0 z.^.~.!.~.~.!./.j.q 7.T.u.*                     ",
"          o y n.K B M b A (.E.6XyXaXpX8X!.^.U.C.V.C.C.P.P.Z.P.p.a.z.f.u.J.~.!.~.~.~.~.^.S.6 } k s.u.=                   ",
"          1 P.p.b b m m J E.6XsXaXtX~.~.~.L.C.P.P.C.v.s.i.s.v.Z.R.R.P.Z.C.V.P.~.(.~.!.~.^.H.U } { ( i.@                 ",
"        = l.Z.C.N.G.Q.)./.^.sXaXqXE.~.U.V.Z.C.i.S e 3 8 8 3 3 e u 7.m.P.V.V.Z.h.~ Q.(.!.~.^./.z.E u.R.W O               ",
"      + G R.V.V.E.^.~.~.~.7XtX9XE.~.P.V.P.7.t f o.*.2.XX4.2.*.$.o.g t H Z.C.C.p.< N D.^.!.!.~.~.T.C.V.P.y               ",
"      1 V.C.V.P.~.~.~.~.F.0.W.~.!.U.V.Z.S 9 $.oXoX X4.1.1.1.:.:.<.4.*.k r v.Z.C.z.4 A _.!.~.!.~.J.C.V.C.n.;             ",
"    X ! R.m.P.~.~.~.!./.L V ` G.^.J.Z.u l oX X1.<.1.<.1.1.1.<.=.;.=.<.oXO.3 d.Z.C.V.H.~.~.!.~.~.U.C.Z.C.P.G X           ",
"    , V.V.C.N./.~.!.~.~.F.Y X.I H.R.G f #X<.1.4.oXoXoXXX4.4.<.<.:.;.=.=..X$.e b.C.C.U.~.!.~.~.~.~.C.d.v.Z.m.,           ",
"    S P.Z.s.6 ` /.(.~.~.^.`./ P N.n.3 2.1.oXXX=.@.T I g l l T ' *.<.<.;.=..XR S P.V.E.~./.(.~.~.~.M.z Q b.R.S           ",
"  O 7.P.V.N.q  .U k.Y.E.qX9XE.W.R.6.k oXXX@.f >                 2 g #.2.:.=.1.s v.V.0.t.r.f.I.~.~.A./ +.~ T.h.*         ",
"  ; v.C.V.R.`.z } 5 8./.pXyXE.I.P.S O.XXf #                           I -.:.4.l 7.p.x ].].[._ H.~.P.c.' T p.P.1         ",
"  1 C.C.C.J.^./.x.8.H.E.yXtXI.L.Z.S R 8                                 9 #. XR D K.p.a.0.w.Q H.^.I.Z.g.L d.R.i         ",
"  w C.C.V.C.!.~.^././.~.7X6X/.E.Z.! &                                     8 ;.R D P.P.(.(.7XE.~.!.E.C.C.C.V.Z.!         ",
"  y R.V.C.V.U.~.!.!.~.H.0.8.t.0.V.g.*                                       R k q.P.L.!.6XpX6X!.^.U.V.C.V.C.R.q.X       ",
"  1 7.A.P.C.C.~.~.~.H.x [.].[.'.q.R.i                                         2 b.P.!.E.0XsX~.~.~.C.C.V.Z.B.G 3 @       ",
"  > U h 7.Z.C.K.~.~.!.r.8.f.f.0.n.Z.v.,                                       ~ Z.I.^.E.qX9XE.~.J.C.V.Z.v.y o.#.%       ",
"  2 =X2.U S B.C.C.U.~././.(.^.(.U.C.P.p.;                                   i Z.C.U.~.!.f.G.(.I.C.V.C.B.h $.#X#.#       ",
"  - |.:X+X#.h B.V.C.~.!.~.!.~.!.U.C.V.Z.g.w                             X S P.C.C.I.(.S.< B S.R.V.C.Z.~ @.oXoX@..       ",
"  O &.1X%XoX#.E Z.V.K.~.!.~.!.~.~.C.C.V.Z.V.G ,                     X 1 7.B.s.C.U.~.~.!.~ v v 7.Z.C.M.L 3.1.:X)         ",
"    z 1X&X}.XXU c.C.C./././._./.~.~.J.C.V.C.R.A.6.p r , @ # = ; w u 7.C.a.] 0 z.(.!.~.~.(.S.m A Z.Z.i.@.oXOX1Xf         ",
"    > $X,X}.oXR p.P.c./ ` ` 9.F./.!.~.U.C.C.d.( R Y E p.g.d.g.g.V.P.T.( X.V E `.~.~.~.~.~./.N.M.C.Z.~ *.OX,X$X>         ",
"    . +.1XOXXXO.7.v.C X.C C V g `.~.!.~./.0.6 } 6 | { f T.Z.Z.Z.C.V.V.L P a./.~.~.~.~.~.U.C.C.C.C.b.Y 5.&X1X&.O         ",
"      2 -X%X4.$.E b.P ^ l.z.9.9.~.!.~.!./.D.g 7.N.N.9.p.Z.V.C.V.C.J.~.W.H.(.!.E.U.K.P.V.C.V.V.C.Z.W $.+X*X+Xf           ",
"      . ) 1X1.1.L b.Z.Z.P.P.R.R.K.J.J.K.P.P.R.~.(.(.(./.!.~.I.U.U.!.~.~.^.I.J.C.C.Z.C.Z.Z.Z.Z.b.W @.oX@X+X#.&           ",
"        = |.%X X@.D R.V.V.m.V.V.Z.P.Z.C.M.Z.P.V.J.U.~.!.~.~.^._.(.(.~.~.U.V.Z.C.l.7./ / / 9.( Y $.XX}.@XoX8             ",
"          7 :X X XU G C.P.P.P.B.i.D y t e w H C.C.C.J.~.!.^.D.^ ^ 9.G.K.C.Z.7.Q Y #.$.>.*.$.>.1. X1.%X=XT O             ",
"            z 1X X4.R h D G u d f T #.*.=.$.9 r C.C.C.V.P.!.4 v v < F R.B.Q T >.oXXXOXOXOX+X+X%X%X*X1X-.-               ",
"            . U 1X@XoX>.O.o.#.>.oXoXoXOXOXoXoXk w P.P.V.V.V.d.i.a.7.v.Z.i @.oX4.1.%X-X*X,X-X;X*X%X+X2.2                 ",
"              $ U 1X-X+X#X+X+X+XOX*X*X-X-X%X+XoX0 1 s.P.P.Z.P.P.P.R.R.S o.oX1.1.&X;X-X-X%XOX X<.4.1.7                   ",
"                . g -X2X*X-X-X-XeX3X<X,X,X;X-X-X=XR > r H d.c.v.l.7.y T XX1.1.%X,X*X+X1.1.<.<.#X}.7                     ",
"                    7 |.4X4X5X4XaXaXrX3X<X,X,X*X-X1X$X@.g 8 3 d d l $.XX1.<.OX;X%X X1.1.<.4.>X%.>                       ",
"                      = ) ,X4X5XeXiXaXaXuXrX3X4X,X*X;X:X:X%X@XXXXXoX X4. X+X;X%X4.1.1.1.=X&XT #                         ",
"                          7 &.,X2X<XeXuXaXaXaXsXiXiXuXrXeX3X<X-X-X%X&X&X-X;X*X X2. X=X-X%.7                             ",
"                            O s &.%X1X2X3XrXiXaXaXaXaXaXaXaXiX4X&X-X-X-X*X*X%XXX>X$X&.f                                 ",
"                                  2 T %.%X:X2X4X4X3X3X3X3X5X,X*X-X-X;X1X1X1X%X,.) 7                                     ",
"                                      @ 7 z +.%.|.$X&X;X;X:X:X:X-X%X$X-.&.U 8 -                                         ",
"                                              @ > 7 f f z z z g f 8 > &                                                 ",
"                                                                                                                        ",
"                                                                                                                        ",
"                                                                                                                        ",
"                                                                                                                        ",
"                                                                                                                        ",
"                                                                                                                        ",
"                                                                                                                        "
};
