/* XPM */
static char *_b0f971e621c49eb8f26730d0a82986e[] = {
/* columns rows colors chars-per-pixel */
"60 60 162 2 ",
"   c black",
".  c white",
"X  c #4B82BA",
"o  c #4B82BA",
"O  c #4B82BA",
"+  c #4B82BA",
"@  c #4B82BA",
"#  c #4B82BA",
"$  c #4B82BA",
"%  c #4B82BA",
"&  c #4B82BA",
"*  c #4B82BA",
"=  c #4B82BA",
"-  c #4B82BA",
";  c #4B82BA",
":  c #4B82BA",
">  c #4B82BA",
",  c #4B82BA",
"<  c #4B82BA",
"1  c #4B82BA",
"2  c #4B82BA",
"3  c #4B82BA",
"4  c #4B82BA",
"5  c #4B82BA",
"6  c #4B82BA",
"7  c #4B82BA",
"8  c #4B82BA",
"9  c #4B82BA",
"0  c #4B82BA",
"q  c #4B82BA",
"w  c #4B82BA",
"e  c #4B82BA",
"r  c #4B82BA",
"t  c #4B82BA",
"y  c #4B82BA",
"u  c #4B82BA",
"i  c #4B82BA",
"p  c #4B82BA",
"a  c #4B82BA",
"s  c #4B82BA",
"d  c #4B82BA",
"f  c #4B82BA",
"g  c #4B82BA",
"h  c #4B82BA",
"j  c #4B82BA",
"k  c #4B82BA",
"l  c #4B82BA",
"z  c #4B82BA",
"x  c #4B82BA",
"c  c #4B82BA",
"v  c #4B82BA",
"b  c #4B82BA",
"n  c #4B82BA",
"m  c #4B82BA",
"M  c #4B82BA",
"N  c #4B82BA",
"B  c #4B82BA",
"V  c #4B82BA",
"C  c #4B82BA",
"Z  c #4B82BA",
"A  c #4B82BA",
"S  c #4B82BA",
"D  c #4B82BA",
"F  c #4B82BA",
"G  c #4B82BA",
"H  c #4B82BA",
"J  c #4B82BA",
"K  c #4B82BA",
"L  c #4B82BA",
"P  c #4B82BA",
"I  c #4B82BA",
"U  c #4B82BA",
"Y  c #4B82BA",
"T  c #4B82BA",
"R  c #4B82BA",
"E  c #4B82BA",
"W  c #4B82BA",
"Q  c #4B82BA",
"!  c #4B82BA",
"~  c #4B82BA",
"^  c #4B82BA",
"/  c #4B82BA",
"(  c #4B82BA",
")  c #4B82BA",
"_  c #4B82BA",
"`  c #4B82BA",
"'  c #4B82BA",
"]  c #4B82BA",
"[  c #4B82BA",
"{  c #4B82BA",
"}  c #4B82BA",
"|  c #4B82BA",
" . c #4B82BA",
".. c #4B82BA",
"X. c #4B82BA",
"o. c #4B82BA",
"O. c #4B82BA",
"+. c #4B82BA",
"@. c #4B82BA",
"#. c #4B82BA",
"$. c #4B82BA",
"%. c #4B82BA",
"&. c #4B82BA",
"*. c #4B82BA",
"=. c #4B82BA",
"-. c #4B82BA",
";. c #4B82BA",
":. c #4B82BA",
">. c #4B82BA",
",. c #4B82BA",
"<. c #4B82BA",
"1. c #4B82BA",
"2. c #4B82BA",
"3. c #4B82BA",
"4. c #4B82BA",
"5. c #4B82BA",
"6. c #4B82BA",
"7. c #4B82BA",
"8. c #4B82BA",
"9. c #4B82BA",
"0. c #4B82BA",
"q. c #4B82BA",
"w. c #4B82BA",
"e. c #4B82BA",
"r. c #4B82BA",
"t. c #4B82BA",
"y. c #4B82BA",
"u. c #4B82BA",
"i. c #4B82BA",
"p. c #4B82BA",
"a. c #4B82BA",
"s. c #4B82BA",
"d. c #4B82BA",
"f. c #4B82BA",
"g. c #4B82BA",
"h. c #4B82BA",
"j. c #4B82BA",
"k. c #4B82BA",
"l. c #4B82BA",
"z. c #4B82BA",
"x. c #4B82BA",
"c. c #4B82BA",
"v. c #4B82BA",
"b. c #4B82BA",
"n. c #4B82BA",
"m. c #4B82BA",
"M. c #4B82BA",
"N. c #4B82BA",
"B. c #4B82BA",
"V. c #4B82BA",
"C. c #4B82BA",
"Z. c #4B82BA",
"A. c #4B82BA",
"S. c #4B82BA",
"D. c #4B82BA",
"F. c #4B82BA",
"G. c #4B82BA",
"H. c #4B82BA",
"J. c #4B82BA",
"K. c #4B82BA",
"L. c None",
"P. c #4B82BA",
/* pixels */
". . . . . . . . . . . . . . . . . . . . . . . . . . . . . . . . . . . . . . . . . . . . . . . . . . . . . . . . . . . . ",
". . . . . . . . . . . . . . . . . . . . . . . . . . . . . . . . . . . . . . . . . . . . . . . . . . . . . . . . . . . . ",
". . . . . . . . . . . . . . . . . . . . . . . . . . . . . . . . . . . . . . . . . . . . . . . . . . . . . . . . . . . . ",
". . . . . . . . . . . . . . . . . . . . . . . . . . . . . . . . . . . . . . . . . . . . . . . . . . . . . . . . . . . . ",
". . . . . . . . . . . . . . . . . . . . . . . . . . . . . . . . . . . . . . . . . . . . . . . . . . . . . . . . . . . . ",
". . . . . . . . . . . . . . . . . . . . . . . . . . . . . . . . . . . . . . . . . . . . . . . . . . . . . . . . . . . . ",
". . . . . . . . . . . . . . . . . . . . . . . . . . . . . . . . . . . . . . . . . . . . . . . . . . . . . . . . . . . . ",
". . . .                                                   X X X                                                 . . . . ",
". . . .                                                 o       X                                               . . . . ",
". . . .                                               O   c =.4   o                                             . . . . ",
". . . .                                             o   Z V.P.p.y   O                                           . . . . ",
". . . .                                         X X   U P.P.F.P.v.j   O               X o X o o                 . . . . ",
". . . .                                       X     ' P.K.H.K.G.P.V.C   O                                       . . . . ",
". . . .                                     o   % =.P.H.H.P.P.P.G.P.J.P   o           7 d i p a *               . . . . ",
". . . .                                   O   6 6.P.G.G.P.2.A z.P.F.L.P.Q   X X   +   ..F.B.A.S.l   X           . . . . ",
". . . .                                 O   i a.P.G.J.P.#.=   s i.P.F.J.P.}     X +   +.P.J.P.P.c   o           . . . . ",
". . . .                               o   v v.P.D.P.P.~     +   8 6.P.F.G.P.&.$   #   o.L.F.K.L.x   X           . . . . ",
". . . .                             X   H F.P.D.P.N.F     ^ 6.9   ; :.P.G.F.P.3.2   X X.P.G.L.P.c   o           . . . . ",
". . . .                               E P.K.D.P.j.k   & @.P.P.d.f   X | P.J.F.P.w.r   %.K.F.L.P.c   o           . . . . ",
". . . .                       o   O | P.H.D.P.7.q   q 5.P.G.G.P.m.N     ! P.K.S.P.j.u I P.G.J.P.x   o           . . . . ",
". . . .                     O   > ,.P.F.G.P.$.-   l j.P.G.L.P.H.P.G.J     L H.P.D.P.v.z P P.P.J.c   o           . . . . ",
". . . .                   O   0 0.P.D.L.P.~     G Z.P.H.L.P.L.P.J.K.P.W     C M.P.D.P.D.M b V.P.l   X           . . . . ",
". . . .                 O   g f.P.A.P.C.H     ~ P.P.J.P.P.L.L.L.P.K.J.P.{ @   h l.P.D.L.P.G y g.N   o           . . . . ",
". . . .               O   V n.P.S.P.k.c   , &.P.J.K.P.L.L.P.P.P.L.P.K.H.P.;.<   t u.P.F.J.P.E 7 q X             . . . . ",
". . . .           X o   K K.P.D.P.q.w   e q.P.H.L.P.L.P.P.P.P.P.P.L.P.L.H.P.8.9   5 4.P.G.H.P. .X   o           . . . . ",
". . . .         X     ^ P.K.G.P.&.-   c k.P.H.L.P.L.P.P.P.P.P.P.P.P.L.P.L.G.P.p.s   $ &.P.G.G.P.<.:   O         . . . . ",
". . . .       o   # +.P.G.L.P.^     L F.P.H.P.L.L.P.P.P.P.P.P.P.P.P.P.L.L.P.G.P.x.b     ] P.H.F.P.0.8   O       . . . . ",
". . . .     O   3 <.P.S.P.Z.J     ) P.K.J.P.L.L.P.P.P.P.P.P.P.P.P.P.P.P.L.L.P.H.P.Z.F     R P.K.F.P.s.y   o     . . . . ",
". . . .   X   e y.P.S.P.k.x   1 -.P.H.K.P.L.L.P.P.P.P.P.P.P.P.P.P.P.P.P.P.L.L.P.J.L.P.T     G F.P.S.P.c.j   X   . . . . ",
". . . . X   c h.P.D.P.q.q   p t.P.G.L.P.L.P.P.P.P.P.P.P.P.P.P.P.P.P.P.P.P.P.L.L.P.K.H.P.' X   m b.P.H.K.B.Z   X . . . . ",
". . . . o   #.P.P.P.#.-   M z.P.G.L.P.L.P.P.P.P.P.P.P.P.P.P.P.P.P.P.P.P.P.P.P.P.L.P.K.H.P.*.:   a 1.H.P.P.[   o . . . . ",
". . . .     + D Q x     l G.P.H.P.L.L.P.P.P.P.P.P.P.P.P.P.P.P.P.P.P.P.P.P.P.P.P.P.L.P.L.G.P.>.o     g K x       . . . . ",
". . . .             @ X G P.F.P.L.L.P.P.P.P.P.P.P.P.P.P.P.P.P.P.P.P.P.P.P.P.P.P.P.P.L.P.J.J.h.  o               . . . . ",
". . . .       O + o +   A L.H.L.L.P.P.P.P.P.P.P.P.P.P.P.P.P.P.P.P.P.P.P.P.P.P.P.P.P.P.L.J.L.p.      o + o       . . . . ",
". . . .             +   S P.H.P.P.P.P.P.P.P.P.P.P.P.P.P.P.P.P.P.P.P.P.P.P.P.P.P.P.P.P.P.K.P.s.                  . . . . ",
". . . .             +   S P.H.P.P.P.P.P.P.P.P.P.P.P.P.P.P.P.P.P.P.P.P.P.P.P.P.P.P.P.P.P.K.P.s.                  . . . . ",
". . . .             +   S P.H.P.P.P.P.P.P.P.P.P.P.P.P.P.P.P.P.P.P.P.P.P.P.P.P.P.P.P.P.P.K.P.s.                  . . . . ",
". . . .             +   S P.H.P.P.P.P.P.P.P.P.L.L.L.H.G.G.G.G.G.H.L.P.L.L.P.P.P.P.P.P.P.K.P.s.                  . . . . ",
". . . .             +   S P.H.P.P.P.P.P.P.P.P.P.P.L.P.P.P.P.P.P.P.P.P.P.P.P.P.P.P.P.P.P.K.P.s.                  . . . . ",
". . . .             +   S P.H.P.P.P.P.P.P.P.P.L.L.P.>./ ` _ ` ( @.C.P.K.L.P.P.P.P.P.P.P.K.P.s.                  . . . . ",
". . . .             +   S P.H.P.P.P.P.P.P.P.P.J.L.t.              I P.H.L.P.P.P.P.P.P.P.K.P.s.                  . . . . ",
". . . .             +   S P.H.P.P.P.P.P.P.P.P.H.P.2.  o o o o @ X n P.K.K.P.P.P.P.P.P.P.K.P.s.                  . . . . ",
". . . .             +   S P.H.P.P.P.P.P.P.P.P.J.P.5.          O   V P.J.L.P.P.P.P.P.P.P.K.P.s.                  . . . . ",
". . . .             +   S P.H.P.P.P.P.P.P.P.P.J.P.5.          O   V P.K.L.P.P.P.P.P.P.P.K.P.s.                  . . . . ",
". . . .             +   S P.H.P.P.P.P.P.P.P.P.J.P.5.          O   V P.K.L.P.P.P.P.P.P.P.K.P.s.                  . . . . ",
". . . .             +   S P.H.P.P.P.P.P.P.P.P.J.P.5.          O   V P.K.L.P.P.P.P.P.P.P.K.P.s.                  . . . . ",
". . . .             +   S P.H.P.P.P.P.P.P.P.P.J.P.5.          O   V P.K.L.P.P.P.P.P.P.P.K.P.s.                  . . . . ",
". . . .             +   S P.H.P.P.P.P.P.P.P.P.J.P.5.          O   V P.K.L.P.P.P.P.P.P.P.J.P.a.                  . . . . ",
". . . .             O   A J.F.J.J.J.J.J.J.J.J.G.J.3.          o   B J.H.H.J.J.J.J.J.J.J.H.J.p.                  . . . . ",
". . . .             +   H P.P.P.P.P.P.P.P.P.P.P.P.9.          O   C P.P.P.P.P.P.P.P.P.P.P.P.j.                  . . . . ",
". . . .             o   g e.r.t.y.y.y.y.y.y.y.e.y.O.          o   z y.r.t.y.y.y.y.y.y.t.r.y.Y                   . . . . ",
". . . .                                                                                                         . . . . ",
". . . .                   X   X X X X X X X X   X                   X   X X X X X X X X   X X                   . . . . ",
". . . . . . . . . . . . . . . . . . . . . . . . . . . . . . . . . . . . . . . . . . . . . . . . . . . . . . . . . . . . ",
". . . . . . . . . . . . . . . . . . . . . . . . . . . . . . . . . . . . . . . . . . . . . . . . . . . . . . . . . . . . ",
". . . . . . . . . . . . . . . . . . . . . . . . . . . . . . . . . . . . . . . . . . . . . . . . . . . . . . . . . . . . ",
". . . . . . . . . . . . . . . . . . . . . . . . . . . . . . . . . . . . . . . . . . . . . . . . . . . . . . . . . . . . ",
". . . . . . . . . . . . . . . . . . . . . . . . . . . . . . . . . . . . . . . . . . . . . . . . . . . . . . . . . . . . ",
". . . . . . . . . . . . . . . . . . . . . . . . . . . . . . . . . . . . . . . . . . . . . . . . . . . . . . . . . . . . ",
". . . . . . . . . . . . . . . . . . . . . . . . . . . . . . . . . . . . . . . . . . . . . . . . . . . . . . . . . . . . "
};
