/* XPM */
static char *_4ec2cd784854254ada7a9342b8d84bd[] = {
/* columns rows colors chars-per-pixel */
"60 60 253 2 ",
"   c #3E241C",
".  c #392B23",
"X  c #592517",
"o  c #4F2B1D",
"O  c #662714",
"+  c #792E16",
"@  c #7C341B",
"#  c #793118",
"$  c #6D250F",
"%  c #482E24",
"&  c #583226",
"*  c #56332B",
"=  c #753B27",
"-  c #673629",
";  c #7C412A",
":  c #744227",
">  c #664336",
",  c #794935",
"<  c #64402E",
"1  c #655953",
"2  c #77554A",
"3  c #796359",
"4  c #87381B",
"5  c #973C19",
"6  c #A43D1A",
"7  c #923D23",
"8  c #8F3D24",
"9  c #9A421A",
"0  c #A8481B",
"q  c #B24F1D",
"w  c #88452A",
"e  c #934425",
"r  c #934A2C",
"t  c #9C4B2B",
"y  c #994727",
"u  c #9E532D",
"i  c #874A37",
"p  c #9C4E33",
"a  c #934B32",
"s  c #9B5331",
"d  c #945538",
"f  c #8F5435",
"g  c #A34B2B",
"h  c #A74824",
"j  c #A7552B",
"k  c #B45B2C",
"l  c #BC5C2A",
"z  c #B85426",
"x  c #A64D32",
"c  c #A35334",
"v  c #A55934",
"b  c #AA5A35",
"n  c #A45D3B",
"m  c #A95837",
"M  c #B35D33",
"N  c #BA5D35",
"B  c #B54B22",
"V  c #B9612C",
"C  c #AE633C",
"Z  c #AA6238",
"A  c #B3633C",
"S  c #BA643C",
"D  c #BB6A3C",
"F  c #B96436",
"G  c #C35C28",
"H  c #C25E37",
"J  c #C4642D",
"K  c #CB662D",
"L  c #D5682B",
"P  c #C46433",
"I  c #C46A36",
"U  c #C3643A",
"Y  c #C46B3B",
"T  c #CA6C3B",
"R  c #CA6835",
"E  c #D36C36",
"W  c #CC723D",
"Q  c #C7713B",
"!  c #D77539",
"~  c #E0793F",
"^  c #965B49",
"/  c #845547",
"(  c #9B654C",
")  c #836357",
"_  c #97685B",
"`  c #92735F",
"'  c #AC6343",
"]  c #A86947",
"[  c #B46542",
"{  c #B56B43",
"}  c #BC6C44",
"|  c #B56C4B",
" . c #BB6D4C",
".. c #B66545",
"X. c #BC724C",
"o. c #BB7347",
"O. c #AA6C54",
"+. c #A97458",
"@. c #BB7A59",
"#. c #B87755",
"$. c #B66E4E",
"%. c #977668",
"&. c #9A7D73",
"*. c #8A6F66",
"=. c #A97966",
"-. c #B67D64",
";. c #A87E72",
":. c #B77D72",
">. c #AE5E43",
",. c #C36D42",
"<. c #C56B46",
"1. c #CB7343",
"2. c #CC7B45",
"3. c #C3734B",
"4. c #CC7B4C",
"5. c #C67648",
"6. c #D27D4B",
"7. c #D97D4B",
"8. c #D47742",
"9. c #C57B53",
"0. c #CA7C54",
"q. c #C47B5C",
"w. c #C27654",
"e. c #D27E52",
"r. c #DB7B55",
"t. c #D26E44",
"y. c #E17D44",
"u. c #E1813E",
"i. c #DD803D",
"p. c #95837A",
"a. c #A8816C",
"s. c #BC8264",
"d. c #BA866B",
"f. c #AA8879",
"g. c #B68976",
"h. c #BF977E",
"j. c #CB804D",
"k. c #D5834C",
"l. c #DC834C",
"z. c #DD8549",
"x. c #CD8255",
"c. c #C4835C",
"v. c #CB825A",
"b. c #CA875D",
"n. c #D48353",
"m. c #DB8455",
"M. c #D48B5D",
"N. c #DC8B5B",
"B. c #D58659",
"V. c #D9965F",
"C. c #E2874A",
"Z. c #E28C54",
"A. c #E48859",
"S. c #E4935D",
"D. c #EA9559",
"F. c #C58362",
"G. c #CC8361",
"H. c #CB8A63",
"J. c #C58A6A",
"K. c #D38B63",
"L. c #DA8C62",
"P. c #D38865",
"I. c #C8916A",
"U. c #DB9464",
"Y. c #D5946C",
"T. c #DC9A6C",
"R. c #D89569",
"E. c #C58B77",
"W. c #CA9372",
"Q. c #C8967A",
"!. c #DC9B74",
"~. c #D49876",
"^. c #D88E71",
"/. c #E78762",
"(. c #E69766",
"). c #F19D64",
"_. c #E49A73",
"`. c #F6947C",
"'. c #DEA37B",
"]. c #DBA67B",
"[. c #CDA17E",
"{. c #E6A478",
"}. c #EEA46F",
"|. c #BA9686",
" X c #AC928A",
".X c #BBA79E",
"XX c #B6ABA5",
"oX c #BAB1AC",
"OX c #C79986",
"+X c #D79C84",
"@X c #C9978E",
"#X c #EB9888",
"$X c #FB9586",
"%X c #F19C9A",
"&X c #D8A788",
"*X c #C8A899",
"=X c #D9A996",
"-X c #DBB397",
";X c #D0A78A",
":X c #E4AA87",
">X c #E4B79A",
",X c #EDAF93",
"<X c #D8B7A6",
"1X c #CBB2AB",
"2X c #E6B8A6",
"3X c #EFB0A8",
"4X c #DCC3AC",
"5X c #DCC4B8",
"6X c #CCC3BC",
"7X c #E8C3A9",
"8X c #F6C6AD",
"9X c #E9C8B6",
"0X c #F6C8B8",
"qX c #F6D4BC",
"wX c #F5D2B4",
"eX c #E4C09C",
"rX c #D6CBC7",
"tX c #D9D7D6",
"yX c #D4CBC6",
"uX c #EACCC4",
"iX c #EAD4C8",
"pX c #F9D7C5",
"aX c #E8D9D5",
"sX c #F7DBD2",
"dX c #FDCAC2",
"fX c #FBE1CD",
"gX c #E7E1DD",
"hX c #FDEBDD",
"jX c #F9E4D6",
"kX c #EBE7E3",
"lX c #EDE9E4",
"zX c #E9E9E6",
"xX c #FEECE3",
"cX c #F3EDEB",
"vX c #F8E9E4",
"bX c #FFF1E5",
"nX c #FEF3EC",
"mX c #FFFAED",
"MX c #F7F3EA",
"NX c #F5F5F3",
"BX c #FDF6F3",
"VX c #FEFBF4",
"CX c #F6FCFC",
"ZX c #FFFFFD",
"AX c #FEFFFD",
"SX c #FCFFFF",
"DX c #FFFEFF",
"FX c #FEFFFF",
"GX c white",
"HX c #FEFEFE",
"JX c #FEFDFE",
"KX c #FEFEFD",
"LX c #FBF7F8",
/* pixels */
"GXGXGXGXGXGXGXGXGXGXGXGXGXGXGXGXGXAXAXVXJXGXGXCXJXAXGXGXGXGXCXCXGXAXGXGXGXGXGXGXGXGXGXGXGXJXJXJXJXJXJXJXLXJXGXJXGXGXGXGX",
"GXGXGXGXGXGXGXGXGXGXGXGXGXGXGXGXAXAXGXGXGXGXGXJXGXGXGXGXGXGXJXJXGXGXGXGXGXGXGXGXGXAXGXGXGXGXGXJXGXJXJXJXJXGXGXGXGXGXGXGX",
"GXGXGXGXGXGXGXGXGXGXGXGXGXGXGXGXGXAXAXAXVXJXGXGXJXJXJXJXGXGXJXJXGXGXGXGXGXGXGXAXAXAXAXAXAXGXGXGXGXGXGXGXJXCXJXCXGXGXGXAX",
"GXGXGXGXGXGXGXGXGXGXGXGXGXGXGXGXGXJXLXGXGXGXGXGXGXGXGXGXGXGXJXJXGXGXGXGXGXGXGXGXAXAXAXAXGXGXGXGXGXGXGXGXGXGXGXGXGXGXGXAX",
"GXGXGXGXGXGXGXGXGXGXGXGXGXGXGXGXGXGXJXJXJXJXCXJXGXGXGXGXGXJXGXJXJXJXGXGXGXGXGXGXGXGXGXGXGXGXGXGXGXJXCXJXGXJXJXGXGXGXGXAX",
"GXGXGXGXGXGXGXGXGXGXGXGXGXGXGXGXGXJXJXCXCXGXGXAXVXAXAXAXGXAXJXJXJXJXGXGXJXGXGXGXGXGXGXGXGXGXGXGXJXGXGXGXAXAXVXVXGXGXGXAX",
"GXGXGXGXGXGXGXGXGXGXGXGXGXGXGXGXGXGXJXCXGXAXVXxXsXsXxXVXAXAXJXGXJXGXGXGXAXAXAXGXGXGXGXGXGXAXAXAXAXAXVXnXxXjXxXVXAXGXGXGX",
"GXGXGXGXGXGXGXGXGXGXGXGXGXGXGXGXGXGXGXAXAXxX<X;._ =.*XiXbXVXAXGXGXGXGXAXAXAXAXGXGXGXGXGXGXAXAXVXVXmXjX<Xg.a.*XsXVXGXGXGX",
"GXGXGXGXGXGXGXGXGXGXGXGXGXGXGXVXAXAXVXVXnX9X, i a n d +.9XmXnXAXGXGXAXGXGXJXJXJXJXGXJXJXGXGXAXnXnX0X:.^ d w = ;.nXJXCXJX",
"GXGXGXGXGXGXGXGXGXGXGXGXGXGXGXGXAXAXBXnXxX|.i p g j } ' +.7XmXVXMXVXVXGXAXNXCXJXGXGXGXGXGXLXAXVXpX+X] >.g x w i sXLXJXJX",
"GXGXGXGXGXGXGXGXGXGXGXGXGXGXGXGXGXJXGXAXVX;.i 7 6 B R Y { s.>XjXmXVXxXnXAXAXGXGXGXJXVXGXVXVXVXsX+Xv.} <.h h y # uXLXGXJX",
"GXGXGXGXGXGXGXGXGXGXGXGXGXGXJXJXJXJXCXLXBX|.d 7 6 B z T N.o.' &XpXqX=X<XsXxXnXnXnXBXnXxXnXmXqXQ.#.M.<.U B h y i sXJXGXJX",
"GXGXGXGXGXGXGXGXGXGXGXGXGXGXGXGXGXGXJXAXBX9Xi t h 6 z R 8.1.C u F.I.O.( =.g.|.OX@X-X=X-XwXwX~.Z } N.S z z z y ^ xXGXGXJX",
"GXGXGXGXGXGXGXGXGXGXGXGXGXGXGXGXAXVXnXmXxX0Xi p h 0 G P P t.N 9 g C x e w w i i w d n $.Y.K.C j Y 1.M h 0 h e =.nXVXCXJX",
"GXGXGXGXGXGXGXGXGXGXGXJXGXGXGXMXfX7X2X>X=XQ.' p 7 h k U t.R q h 9 9 9 y a w ; = w r s C 5.D 0 z P P N h 5 5 w =XnXAXJXJX",
"GXGXGXGXGXGXGXGXCXGXGXVXVXVXbXiXOXd.I.@.J.q.P.r y g N U T P z 0 9 5 5 g e + @ @ r y b k V V q z E R z 6 h e w qXVXGXGXJX",
"JXJXAXAXGXGXGXGXJXJXGXVXmXpX>XQ.F.K.c.@.@.@.q. .7 x <.H H R l q q h b c 8 4 4 e t v j k l J G l l t.k h g @ =.nXGXJXJXJX",
"JXJXAXAXGXJXJXGXJXGXAXbXqX:X~.q.v.9.o.9.q.| F.!.p 7 x <.T R V V V k A b y 4 4 e b C F V J J J P P U t.M @ ( uXVXGXJXGXGX",
"GXGXAXAXGXJXJXGXAXVXhXqX&XJ.G.w.X.{ { @.| n #.!.P.m x ..T I P T 1.T ,.S g 5 4 t M D Y Y Y P I 1.Y 1.D v O.<XVXAXGXGXGXAX",
"GXGXAXGXGXGXGXVXmXfX9X>X~.G.G.X.' X.9.X...' #.c.:XG...D 1.8.8.7.l.8.W U j 9 9 j F Y W W Q F I 7.2.k.A #.7XbXAXJXGXGXAXAX",
"GXGXGXGXGXGXVXmXfX7X&X!.P.v.0.| | v.G. ...q.P.K.{._.x.2.z.8.W 8.l.k.! R z 9 h M P ! 8.! W I T l.l.2.9.:XpXbXAXGXGXGXAXVX",
"GXGXGXGXGXGXbXfX>X&X!.L.B.0.{ A 9.9.X.m c  .P.(.(.(.n.k.C.! Y 1.2.k.! W J q h l E y.8.W 1.Y R C.z.j.x.{.2XuXnXGXGXGXAXAX",
"GXGXJXGXGXBXpX>X].!.L.e.6.<.Z } v.} b e 4 t A e.k.k.2.k.k.2.w.{ Z 2.! ! E z z l R 8.1.S } D K ! 7.m.4.v.W.=XsXVXGXGXGXGX",
"AXGXGXGXAXxX7X[.'.(.B.1.1.<.A x.x.S j 4 @ 4 y S Q Q k.B.j.X.+.: e D W ! ! G z q l Y C d ] [ J ! l.n.m.n.$.W.pXVXAXJXJXJX",
"JXGXJXAXmXpX>X~.M.n.n.6.D } 0.U.4.S g + $ @ e j ,.Q 2.5.H.+.> 2 d D 7.~ E L G q z v ; & , ( 5.W 6.k.m.,.{ ] 9XmXAXJXJXCX",
"JXGXAXVXjX7X:XU.M.n.m.6.,.<.v.M.5.F t + $ # 4 g N P 1.5.c.( % * f ,.C.y.E L K J k s - * > / 9.Q 2.2.1.F n f <XmXAXJXJXCX",
"JXGXVXxX8X:X_.B.B.n.n.4.} 3.v.x.5.A t + O O 4 y 0 z P 1.M.+.> < s Y C.y.L L L L F r o * * , v.Y Q Y Y j u w *XmXAXGXGXJX",
"JXGXVXjX>X!.(.m.m.n.n.5.} 9.M.v.5.A p # X O @ y k P T W n.X., : { 2.C.C.! L L L 1.s & & & , 0.Q Q I F M s ; OXVXAXGXGXGX",
"GXAXVXpX:XT.(.m.N.m.n.o.} 0.U.M.9.A p @ X O # t z G J R y.7.| | n.Z.D.C.u.! ! ! 7.{ d = ; n 1.8.t.T Y D v = f.nXAXGXGXAX",
"GXAXmXqX{.(.(.N.N.B.j.o.{ 0.K.v.9.[ c 4 O O + t N P P R ! y.e.n.Z.D.).D.C.i.u.C.Z.4.3.v A 4.Y t.T P P ,.n ; ;.xXAXGXGXAX",
"GXAXbX7X].}.S.N.N.B.n.4.o.9.v.9.w.[ m 8 O O @ t N M k l K E 7.A.D.D.).S.C.z.C.Z.Z.m.2.Y W 8.T T P P P 1.[ i a.xXAXGXGXGX",
"GXVXhX2X].}.S.N.(.U.V.M.0.0.v.w.9.} N y @ + 4 u } S k l G K 7.(.).).(.S.S.S.Z.Z.Z.l.R E E J R F U Y Y 1.{ f a.bXAXGXGXGX",
"VXVXjX>X:X{.M.(.U.T.R.M.x.K.L.v.3.X.[ c w + # y } <.z H R I N.(.}.(.(.).).S.m.l.l.Z.C.E G G P P F Y n.e.n d |.vXGXGXGXGX",
"VXVXfX-X{.{.U.U.R.T.{.T.M.M.M.0.} } [ C c e 4 y ..1.U U Y 4.}.}.(.S.S.(.(.A.m.k.Z.Z.7.I l P I Y ,.n./.v.Z ] -XVXGXGXGXGX",
"AXVXfX-X{.{.U.U.U.T.{.T.K.M.n.5.} D { |  .m t y 3.B.3.} 9.{.,X{.L.B.A./.A.A.7.n.B.U.U.x.5.,.1.Y } v.v.X.' -.7XVXAXGXGXGX",
"AXVXjX>X{.{.(.U.T.R.Y.K.K.M.n.5.5.D [ X.q. .m c } P.H.c.W.,X8X&XR.L././.A.r.m.N.K.{.:X].I.v.x.e.U.T.K.@.#.W.9XnXAXGXGXJX",
"GXVXjX>X].{.}.T.T.Y.Y.K.M.M.n.1.,.S A w.G.G.w...' F.~.].&X7X8X-X^.L././.r.r.r.P.~.-XeX-X[.W.Y.Y.!.Y.H.c.J.Q.7XxXAXGXJXJX",
"GXAXhX7X&X'._._.R.Y.!.T.K.B.n.6.Y S } 9.P.P.P.q. .@.I.;X-X9X9X2X,X#X`.$X$X`._.+X;X-X4X<X-X&X&X!.F.c.c.c.s.E.<XbXAXGXJXJX",
"GXJXnXqX;X~.~.!.Y.Y.!.!.R.L.B.e.1.,.3.w.9.c.P.P.v.$.#.W.;X7X9X9X>X:X#X$X$X#X+X=X<X4X9X7X>X=X+XW.H.H.c.c.s.g.<XbXAXGXGXJX",
"GXGXVXjX<X;XQ.~.~.H.H.Y.R._.U.n.e.5.3.} ' X.b.K.v.#.@.s.d.;X7XpX0X3X%X%X%X%X3X9X9XqX9X-X+XQ.W.J.F.b.@.#.d.|.4XnXAXGXGXGX",
"GXGXGXVXsX*XOX+XW.I.J.Y.!.!.K.v.B.4.} A { 9.M.v.v.v.w.w.q.s.W.>XqXpXdX3X3X0XdX9XqX7X>X~.F.q.@.c.c.{ | s.g.*XiXVXGXGXGXGX",
"CXGXGXAXVXsX<XQ.Q.~.W.J.~.'.~.H.M.0.3.X.} } o.X.0.9.3.3. .| #.J.=X2X3X=X@X=X9XwX7X[.s.| A [ C C { ] ] +.f.4XbXVXGXGXGXGX",
"JXGXGXVXAXVXiXOXg.W.J.-.J.!.~.J.c.c.9.0.3.S C A } A } ,.D S A ' #.~.>X3X8X0X8X>XQ.| v j j M b b n | @.=.|.iXVXAXGXGXGXGX",
"JXGXGXLXBXnX5Xf.=.=.=.+.d.Q.Q.W.J.J.c.q.3.A b b v j M D N S S b n ' O.s.OX=XQ.+.@.n v j g t g ' ] O.a.OX4XjXVXAXGXGXGXGX",
"VXGXGXGXBXaX*X&.) / / ) _ %.a.h.Q.Q.W.F.q.| n c u t v b c c m c [ ' ' ] -.E.s.O.] r e e e p ' -.-.=.f.4XhXVXVXVXGXGXGXGX",
"GXJXJXGXLXaX1X.Xf.%.*.*.) 2 ) &.|.OXQ.d.s.@.| ' v s s s r w a a s p d ( +.+.( i = O # w ^ -.W.=XOX*X5XhXVXVXAXAXGXGXGXGX",
"GXGXCXGXGXnXjXaXaXrX1XXX Xp.*.&. X|.f.a.=.+.#.q.$.' a w w = = ; ; = = = , , < & & & i ( -.OX=X2X9XhXVXAXVXAXAXAXAXGXGXGX",
"CXJXGXGXAXBXvXgXaXaXtXyXyXyXoX.X X Xp.%.%._ +.E.J.O.i ; = O X X X X X & & & % o & - _ :.g.OX=X9XnXVXAXVXAXGXGXAXGXGXGXGX",
"GXGXGXGXAXLXNXNXlXkXkXtXtXtXyXyX6XXX Xp.*.3 ) _ |._ ^ ^ / = = - & o     . . % % - _ :.g.OX=X2XuXVXGXGXGXGXGXGXGXGXGXGXGX",
"AXGXGXGXGXVXLXNXNXNXNXcXzXzXkXgXgXtXyX6X1X X X X|.%._ =._ / / 2 * % . . . . . % > _ g.OX=X-X2X9XVXGXGXGXGXGXGXGXGXGXGXGX",
"AXGXGXGXGXGXAXAXAXAXJXLXNXNXNXNXzXzXkXkXgXaXrXrXrX1X.X1X.Xf.&.&.*.3 1 1 1 1 1 1 2 ) %.f.@X<X5XiXVXGXGXGXGXGXGXGXGXGXGXGX",
"GXGXGXGXGXGXGXGXAXAXJXJXJXLXLXLXLXLXNXcXcXcXcXcXkXaXaXaXuXrXrX1X1X1XXXXXXXXXXXXXXXXX.X1X5XiXjXnXJXGXGXGXGXGXGXGXGXGXGXGX",
"GXGXGXGXGXGXGXGXGXGXGXGXGXGXGXGXGXGXGXLXNXNXNXcXcXcXNXcXcXcXNXlXvXkXkXkXlXkXkXkXNXMXMXMXVXBXBXGXGXGXGXGXGXGXGXGXGXGXGXGX",
"GXGXGXGXGXGXGXGXGXGXGXGXGXGXGXGXVXGXGXJXJXGXGXJXGXLXLXJXVXNXNXJXBXNXLXVXVXAXVXJXNXNXVXJXAXLXLXJXGXGXGXGXGXGXGXGXGXGXGXGX",
"GXGXGXGXGXGXGXGXGXGXGXGXGXGXGXGXGXGXAXVXJXJXGXGXGXVXVXGXGXGXGXGXVXAXAXAXGXGXGXGXGXGXGXGXGXGXGXGXGXGXGXGXGXGXGXGXGXGXGXGX",
"GXGXGXGXGXGXGXGXGXGXGXGXGXGXGXGXAXAXGXGXGXGXGXGXGXGXGXJXGXGXGXJXGXGXGXGXGXGXGXGXGXGXGXGXGXGXGXJXGXGXGXGXGXGXGXGXGXGXGXGX",
"GXGXGXGXGXGXGXGXGXGXGXGXGXGXGXGXGXGXGXGXGXGXGXGXGXGXGXGXGXGXGXGXGXGXGXGXGXGXGXGXGXGXGXGXGXGXGXGXGXGXGXGXGXGXGXGXGXGXGXGX",
"GXGXGXGXGXGXGXGXGXGXGXGXGXGXGXGXGXGXGXGXGXGXGXGXGXGXGXGXGXGXGXGXGXGXGXGXGXGXGXGXGXGXGXGXGXGXGXGXGXGXGXGXGXGXGXGXGXGXGXGX",
"GXGXGXGXGXGXGXGXGXGXGXGXGXGXGXGXGXGXGXGXGXGXGXGXGXGXGXGXGXGXGXGXGXGXGXGXGXGXGXGXGXGXGXGXAXAXAXGXGXGXGXGXGXGXGXGXGXGXGXGX",
"GXGXGXGXGXGXGXGXGXGXGXGXGXGXGXGXGXGXGXGXGXGXGXGXGXGXGXGXGXGXGXGXGXGXGXGXGXGXGXGXGXGXGXGXAXAXJXJXGXGXGXGXGXGXGXGXGXGXGXGX"
};
