/* XPM */
static char *_49efafcddc64dea8f0fc9ae456dc738[] = {
/* columns rows colors chars-per-pixel */
"60 60 186 2 ",
"   c #050606",
".  c #080705",
"X  c #0E0A06",
"o  c #0E0C0A",
"O  c #110D07",
"+  c #130E0B",
"@  c #121206",
"#  c #1B1607",
"$  c #15110D",
"%  c #1B130D",
"&  c #1F1B0E",
"*  c #161211",
"=  c #1C1513",
"-  c #1E1913",
";  c #1F1718",
":  c #1F1819",
">  c #22140D",
",  c #2A160D",
"<  c #221A0D",
"1  c #2A190F",
"2  c #311F0B",
"3  c #221613",
"4  c #2C1614",
"5  c #241A14",
"6  c #2A1C15",
"7  c #241619",
"8  c #2B171A",
"9  c #251C1A",
"0  c #2B1D1C",
"q  c #311516",
"w  c #331C14",
"e  c #3A1F16",
"r  c #341D1C",
"t  c #3A1D1E",
"y  c #27250D",
"u  c #2C210D",
"i  c #272014",
"p  c #2B2215",
"a  c #26201C",
"s  c #2C211D",
"d  c #2E291E",
"f  c #332313",
"g  c #3D2315",
"h  c #342913",
"j  c #3E2F15",
"k  c #33221D",
"l  c #3A231C",
"z  c #3C291D",
"x  c #251E21",
"c  c #2B1E21",
"v  c #341E22",
"b  c #3A1F22",
"n  c #2D2223",
"m  c #2E2328",
"M  c #332424",
"N  c #3B2424",
"B  c #352925",
"V  c #3C2A25",
"C  c #34252A",
"Z  c #3B262A",
"A  c #352A2B",
"S  c #3C2A2C",
"D  c #3D312E",
"F  c #3C2730",
"G  c #352A30",
"H  c #3D2C32",
"J  c #3E3033",
"K  c #3C3239",
"L  c #402917",
"P  c #41241D",
"I  c #432A1C",
"U  c #422524",
"Y  c #432A25",
"T  c #4A2D24",
"R  c #43262B",
"E  c #432B2C",
"W  c #4A2D2D",
"Q  c #502F2A",
"!  c #4D3026",
"~  c #44312E",
"^  c #4B312E",
"/  c #50332F",
"(  c #432D33",
")  c #4A2E34",
"_  c #442E38",
"`  c #4A2E3A",
"'  c #443234",
"]  c #4C3234",
"[  c #4E3836",
"{  c #45343A",
"}  c #4C343B",
"|  c #46383C",
" . c #4D393D",
".. c #513535",
"X. c #543837",
"o. c #523639",
"O. c #52343D",
"+. c #51353E",
"@. c #52353B",
"#. c #533839",
"$. c #533939",
"%. c #53383A",
"&. c #53383D",
"*. c #53383E",
"=. c #553A3F",
"-. c #573B3E",
";. c #543A3C",
":. c #583B3A",
">. c #58393C",
",. c #583B3E",
"<. c #593C3D",
"1. c #4F413D",
"2. c #52403F",
"3. c #4D3641",
"4. c #4F3B40",
"5. c #4C3A43",
"6. c #4D3B42",
"7. c #513541",
"8. c #523742",
"9. c #523641",
"0. c #583741",
"q. c #513842",
"w. c #523943",
"e. c #513A43",
"r. c #563940",
"t. c #573A40",
"y. c #543942",
"u. c #523E41",
"i. c #553C41",
"p. c #543E43",
"a. c #533945",
"s. c #533A45",
"d. c #553844",
"f. c #543B46",
"g. c #513D47",
"h. c #543D47",
"j. c #553E46",
"k. c #563E46",
"l. c #533B43",
"z. c #593B42",
"x. c #5C3E40",
"c. c #583B45",
"v. c #5A3E45",
"b. c #593E47",
"n. c #593D44",
"m. c #563C49",
"M. c #553E49",
"N. c #563E49",
"B. c #583F49",
"V. c #593E4A",
"C. c #613F40",
"Z. c #564146",
"A. c #554145",
"S. c #584146",
"D. c #5D4146",
"F. c #5B4245",
"G. c #56424A",
"H. c #584049",
"J. c #5C434A",
"K. c #5B454D",
"L. c #59474D",
"P. c #5B454E",
"I. c #5C434B",
"U. c #5F484A",
"Y. c #5B4651",
"T. c #5E4551",
"R. c #5E4954",
"E. c #614446",
"W. c #62454C",
"Q. c #62484C",
"!. c #64494D",
"~. c #69504F",
"^. c #624651",
"/. c #604851",
"(. c #634954",
"). c #624B55",
"_. c #654E54",
"`. c #634A54",
"'. c #694E55",
"]. c #654C59",
"[. c #6A4E59",
"{. c #694D59",
"}. c #67515A",
"|. c #6A515C",
" X c #705765",
".X c #725A65",
/* pixels */
"M 9 P.y.Z ) U r 8 * M o.] D.Z 3 w.V.*.D.Q.} } ( Z 9 P.).s.8.s.} } v.M S J u.] C ( 8 r R R Y l s B ] Y O H | H 8 ] ` R o ",
"x.5 S ..q W N , , 5 - 5 p ~ J 9 - Z ]  .[ /.s.) r $ n 7 n 0 C H d.` Z H y.>.E Z V C s 5 9 V f = n n = % { {.v.S ` N U = ",
"@.6 * 7 3 5 - - 9 H ^ % G S  .*.M - s 6 6 5.S w % H M.Y.} ( C 9 s M ( ( $.} [ p 0 ..*.j.V 6 $ ' @.] S ] - w.) r ] N w w ",
"M H V + g.p.S.Z. .J...> 5.v._.Z.C z.` y.Z $ = * * J.d.P.j.M.c.$.s S 9  .p.' S ~ ^ w E *...V S R V ] >.@.> n N > k 5 % % ",
"Z R Y 9 w.$.:.] S ] ] % S ] j.H ( +.8.Z n ( ) +.s ' V.P.} j.} N J ).Z ( 9 M ' @.^ l E ..' ' W k ) ) ] V Z * $ J Z H { } ",
"E k V n ] ^ U ]  .} N % H V.J.( p.} } S A c.( *.k 5 6.w.' 3.} C P.J.{ { ' M S E [ E M B i ^ ] ' [ Y M M ] l n I.E.E.*.E ",
"S ] 6 S W W ] <._ O.Z o 9 S (  .J.z.} o.M w.P.J.) u.A C C C A R.j.} N E  .| S M S [ $.S i M ;.E V k _ E N s C E ] Y o.' ",
"J.[ - ( ] u.J.J.R E = ' ( C 0 M { { } >.V G.u.A H | M M 8.J.j.{ { _ k M E k 0 ) E W E ' #.V 9 S ] E  .M R 6 H W ] E $.3.",
"H N 3 C y.I.*.` V + S S.v.^.V Z N S ' S s A { A.M.] 0 = C ' j. .).' C [ Y M H n S V V Z W Y S [ U.z.V u.] - ] R  .J.u.( ",
"M 9 M E A E R M 9 M  .S  .} 7 7 S 8 0 C H  . .Z ( @.U r S n S j.V.5.| ' A { } [ 8 Z S $.E S A S ' k 7  .N 5 E v.P.J. .R ",
"8 r ( %.~ s % J 5.s.w.H ( E S } ~ k W V E E E E 0 5 6 h 6 M  .} } J.' m M B ~ V 9 E M ^ V ^ R } S.M Z n 6 0 C { y.W V 5 ",
"M r ( W Q ! 9 +.3.P.w.} ` ( j. .N P Y V ( *.R U k % 9 $ * -.$...] ] } Z.H { Z 9 ' ) R N 5 o.] } ( M S N 0 ) X.B 0 6 S H ",
") 6 5 k k 6 % N ` V.J.] ' s.} W w k S *.} -.W > m S ..] V 0 0 w M Y l S A } Z ' j.v t 6 ; v.} } } S 0 3 M } W ..k a w.s.",
"7 + 9 9 M S E 5 = M B a j.V.] k 5 ' w. .M M s n U.] E V k Z C C Z V ^ r ( o.R } V E S $ n 8.M.M. .@...R w N R I f 9 ) w.",
"} { ` y.>...W E A H S D n S 6 @ S y.d.` (  .' 0 d M 0 n s.$.B p.!.^ J s H *.E l M E ( - n V.P.V.u.E R 8 $ - - 7 c 0 & C ",
"T.P.( }  .) ] C ( O.z.E 9 s M * ( +.w.( ( ) ) M ( c H w.} H ' B k k H  .M ' W 8 7 N E 5 x  .s.} { ( _ C C ( +.o.O.) M 9 ",
"P.d.} 3._ ( ( } Z } } 9 s.O...N 9 } ^.] ) ..r H v.C } *.M M.{.@.l * { $.R 9 0 Z r J.] $ c A c H T.R.).I.d.( +.@.) E C +.",
"S Z ( ( M ' ) J.).j.] S s.w.*.$.s J w.( ( Z C v...Z Z ) V ' o.l 3 ( Z E E } } V $ 6.n 5.T.} ( n g.)._.P.P.` 3.} ( { S b ",
"9 H 8.6.J.:.N *.} M C ) ( ( j.) X.= H g.{ ( ( n 0 0 ^ U R M t w * M.} S Z M V - 9 s 5.|.P.3.` ( J A J.} ( _ _ M ( E J.d.",
"S C {  .*.Y 8 r t > = U ( H C 0 k $ s.P.).M.} } Z 7 R W N v t r + M ` ) v Z N @ 0 5 w.(.( _ _  .v.g.n 9 ) ` {  .$.) P.J.",
"R *.V.` z...R N P 6 9 ( +.+.R _ k $ _ w.`.J. .O.y.} o.R v N R - 0 9 0 c Z R W = Z % n S n M _ ( s.|.5.C S 5.j.E.U 0 N t ",
"M o...] D.] E W k 5 0 * c n Z ( Z * } P.J.} S ) ( } ] R ( N 3 Z ^._.j.M C ( N * 9 9 H S M 7 9 9 ' ;.} E ' 3.` o.R M t l ",
"_ V V <.F.` E 4 3 P.p.) 5.s { W.S * { 5.{ j.p.' 3.H } R 4 > M s.u.}.}.z.S s.9 c C { v.O.} y.` S s n s V D.@.] F...) W r ",
"H E Z s ] ) l % w.P.Z.j.p.} { U.n H H C C s.g.( y.( V % n C ] v.( ] *.p.M C C M.C  .y.w.w.V.} ) J M.H S V ] x.-.( Z t = ",
"V [ >.M 6 M H S y.J.u.o.U.F.M J L.f.V.).| 9 A } +.^ f - R } $.*.E R _ v.V n |.j.) 9 } s.} T._ 0 A P.F ( Z M ~ *.) N % { ",
"s D ' V > M O.y.w.j.*.$.u.} a 5.{.M.3.d.3.5.M C C k 6 5 } } z.@.%. .} +.R 5 j.+.) M G ( H H 9 C g.j.+.R @.] 7 N V 0 Z J.",
" .p. .U + 0 ] ( ( v.z.5. .R k A J. .) a.3.j.} V 7 S M n a ( ] ( ( R.j.` v + 9 0 0 { M n j.5.H C } ( r s ' ] k % A 8. .+.",
"} +.*.k c 9 - 8 Z {  .s.R R 6 = m 0 5 n C H *.W v V p.v.n = 0 s s g.} l % M } } ' Z 7 7 _  .).u.( Z 0 '  .' N % S `  .} ",
"n +.] R I.Z 9 9 n 3 n P.E 6 + } g. .Z H 0 9 M M Z ( ] } H ( 8.c.' - 5 = * +.] P.w.W N 0 M M A.).O.N { v.*.$.6 $ 6 M v ) ",
"{ ) ' E y.H ( ) ) ) 9 9 9 $ M U.p.p.M.j.%.Z n C M p.@.' ) R 8.0 9 _ ] y.0 ' J.|.S M z I z 7 E E S R *.C z.^ S g.k + 7 n ",
"] ] $.) w.{ ..y.+.0 G  .3._ 0 u.w.} } s.` M J.J.} j.}  .). .R 7 n a.} P.;.= } V.] % % # X } } N ( } H H ] S [ y.Z Z Z R ",
"$.E ] *.p. .D.@.d.n {  .} ^.6 c I.} ' 3.C { {.O.H P.G.P./.W.@.E 9 |.|.P.] ( A H S 0 5.' A s M W E S V ] ] $.R j.( ) z.( ",
"J.$.W Y ( } ;.S.U.' ' J.).Z.E ' M c G C { Y.} ( 4 ' S { 6.P.} *.M Z.| S C H 0 { ].E A.!.<.] M 9 5 k Y ..E [ +.3. .z.+.8.",
"5 B M - n S A. .U.$.A P.S A A S 7 _ g.} { { { ( M @ = s. .'  .' B A 6.G.5.( C n } ^ n V W W U S [ ] M U.[ ] o.+.p.*.F.j.",
"= E E Z C M.} } } B n { ( u.8.v 0 9 Z ' Z.g.5.C  .H 9 0 _ S ( { u.} } n S E W k E <.8 N Y Y E ] *.*.M ~ E k 5 C E J.u.P.",
"5 ' z._ - Z Z E C J ' ' ] 0 M V U 0 M n  .} Z { u.^.' ] W ~ $.Y ] -.R  .s 5 f h 0 V Y ] W U Y M ' W 0 - M V 8 H }  .| p.",
"k = ..r S R N Y W E ( N E V - 6 u p - ] p.Z M o.0 S j.p.W P l M | P.) ] k $ 9 $ * s n 6 V z > 9 M = - 9 *.O.E 0  .E ( A ",
"l X 3 > ] W P P l ( R.S.Y W < = 9 X M x.>.p.{ ] _ H } R l V n ) -.[ R 5 n M p.$.V ) v.] 0 5 a ] ] Z ] 5 Z O.M n l N E E ",
"c M X C +.l I V u.v.U.] r 5 C S o.p.~ s N Y s k E *. .' E n ) R k } } | Z.{ H U.z N :.W e s N U ] ] v.6 + N 6 [ W z U V ",
"N b + { ] U z M ..o.M c V H  .H N Y 6 6.6.H Z ] ] n { ^.v.~ B V 9 ).} M 9 G.[ U.T M ..] ( E l N ) ] [ 0 = . n ] l P E ' ",
"6 E M n Y 3 M R ] ..N r [ ) M 0 0 N s } F.} M ' ' s d B V Y 5 6 B M + 6.F.1.S k k 6 n 5 E %.R ] R S n Z r $ s.] z l S F.",
"a j.*.Y g 6 @ ' F.$.] R S W g 9 ] z.z.V S 3 m ' S H ' S 5 9 H  .V l 9  .2.F.E D.U.] @.E s  .$.M M S Z t k - _ Y R N Z t ",
"B U.*.N l T u $  .!.@.j.*.R R W ]  .>.N 7  .p.w.V.s.v.0 n _./.d.( 8 A ' S -.Y '.~.' ] ] Y k 0 V ( v.+.M E : V k 0 R S ] ",
"]  .] N ^ g g y - S V V Y ] [ U E Z R t + w._ } ( M 8 O J /.P.J. .} ' V k k Y :.l 0 U 2 f w w N E } B A S.W U e % 9 -.<.",
"] N r V ^ Y L <   0 5 - 5 i ' } _ Z N k X 0 N +.` ..Y $ M J./.).P.` ) ( 9 V M s V k N g I U l l ] *.&  .U.] l P L @ A F.",
"$.) ] z.#.T 1   ] C.^ R R M S z.V.` N = A n 0 c C R R - C d.T.} | Z Z ( P.] g k - @ M T g N W o.Y k 9 *.$.E Y Y g h & S ",
"S F.<.z.<.Y 9 x  .R Z N U E ] ] ^.] % 3./.-.j.E n w.E 5 A H H G.w.] ( } ] R M k c S - 5 5 < 5 0 6 6 ' ^ N v W ^ g j @ o ",
"M ' W r w 6 w.M n } } ) R ( ) ] E d H I._  .( R S J.n H s.C c H S.] N ] p.E n V ] y.Y 0 V 6 l R ~ n ] X.R ] *.W T # o $.",
"3 9 S c % C } N % } z.*.W +.S 6 H H j.{.{ } S ] M m H ].P.V.3.M S S } ] $.V S ~ Z *.k ( ] U ^ ^ ' ( s @.F.*.U./ l * A *.",
"X J _.P.E _ R ) % 9 @.*.R ` V s {.M.p.P.J.S C 8.M a  X.XP.V. .s.] C ' } l 0 ' V ~ Y M [ $.W R M V j.S S X.W U l n y.9 ( ",
"E 9 M.@.M ) U q r % n ] ] U.Z - ' v.O.J.W.6.g.( V 5  .g.} } d.} w.y.M H { S.( M S N Y ] o.U t M Y @.^ % M n 3 % ' ) 3 M ",
"z.5 M ) q R l 1 > 5 a % 6 V ' 0 = 0 ~ J E /. .E 6 * B n s 7 c C  .` ( ( O.@.' V 6 - 6 k N W w 5 k R 6 + G.P.} Z ` ( Z X ",
"] 6 * * 5 5 9 s A { ..% K { Z.z.C s s k p ' C 5 $ { M.).w.3.( n 6 0 S ( *.} ] p S ] H m 9 6 5 n S n 7 0 H `.] S ) t r 7 ",
"M ) E $ P.P.Q.v.} S...> } y./.g.C z.} *.Z $ ; 7 = M.d.P.g.s.y.%.M { c  .} S Z ' W U z.J.Y 6 x @.] o.*.^ -  .U r ^ r , 1 ",
"( U V 9  .] ..] ( ] ^ % Z ] g.S _ } 3.V m 8.} 0.k S J.J.} J.} r { ^.H ( 6 M ] o.^ k ] o.o.S ^ r E ] %.W % : 3 5 5 - 9 n ",
"V k N n ] ^ R [  .} N + H V.J.} v.@.} E C 8.( *.N 5 | } ( { _ H P.J.} } ] B S Z V z Z ^ S [ Y S @.R R c } % n G.u.J.w.y.",
"( } 5 H W W @.F.( 0.Z $ ; M C ' D.v.} $.M V.^.G.' P.D M H H H R.3._ r V |  .Z Z  .' Z n < ~ ;.~ ^ l C Z ^ 6 H +.<...' V ",
"J.] - ( ] Z.U.S.E V = 5. .' n M ( ' } *.N 6. .A J ' n c +.V.j.{ { ( k M E k k ( V o.$.E V M D V V M 0.r V a H W ) Y } w.",
"C M 3 C 8.V.} ) k + ( u.p.W.M Z v M R A M S 3.Z.M.] v = M ( 5.w.).J H $.R M H n W Y S E ..N n [ y.*.( ( R 9 } Y ] *.} } ",
"M 9 M [ B S U M n S *.S  .} 9 7 E 8 0 S H } ) n S } U l E n S y.8.g. .Z C } $.[ V z ~ V W S J A.S.E M U.N 9 ] [ u._.} E "
};
