/* XPM */
static char *_99e43fd071c495f839873e178993900[] = {
/* columns rows colors chars-per-pixel */
"60 60 187 2 ",
"   c None",
".  c #394033",
"X  c #575016",
"o  c #6D5F1C",
"O  c #7E6F1B",
"+  c #7D7014",
"@  c #7B6B0A",
"#  c #4D4C2C",
"$  c #42452A",
"%  c #454B36",
"&  c #565C3D",
"*  c #6D5F2C",
"=  c #6C5E3C",
"-  c #67662F",
";  c #7A752C",
":  c #797224",
">  c #6A6B33",
",  c #786C39",
"<  c #6F703A",
"1  c #777433",
"2  c #3D4D52",
"3  c #3E515D",
"4  c #494B4D",
"5  c #485659",
"6  c #585855",
"7  c #5D6448",
"8  c #596759",
"9  c #666C46",
"0  c #786B43",
"q  c #6C7245",
"w  c #727645",
"e  c #636453",
"r  c #697250",
"t  c #787256",
"y  c #475E6B",
"u  c #495D69",
"i  c #525D64",
"p  c #49606E",
"a  c #516368",
"s  c #596466",
"d  c #4B6473",
"f  c #4F6979",
"g  c #526D7D",
"h  c #546773",
"j  c #5B7278",
"k  c #646364",
"l  c #6B6B6B",
"z  c #646968",
"x  c #737764",
"c  c #7D7D6B",
"v  c #7B7C66",
"b  c #6C757B",
"n  c #66757B",
"m  c #747475",
"M  c #7A7A7A",
"N  c #757978",
"B  c #8D7C0D",
"V  c #83720A",
"C  c #917F0B",
"Z  c #837516",
"A  c #8C7C14",
"S  c #877C1D",
"D  c #837523",
"F  c #89792A",
"G  c #887A36",
"H  c #8A7C43",
"J  c #857449",
"K  c #8D7A4B",
"L  c #847543",
"P  c #857B5A",
"I  c #847753",
"U  c #917F52",
"Y  c #99850B",
"T  c #958315",
"R  c #93811C",
"E  c #9D891B",
"W  c #9B8615",
"Q  c #A38D0C",
"!  c #AA940C",
"~  c #B49C0D",
"^  c #B89F0E",
"/  c #A28E15",
"(  c #A59112",
")  c #AC9613",
"_  c #A9961A",
"`  c #B49D12",
"'  c #BDA30D",
"]  c #B9A41B",
"[  c #BEA818",
"{  c #8B8326",
"}  c #928323",
"|  c #978D2B",
" . c #9D9022",
".. c #8A863D",
"X. c #928637",
"o. c #A89621",
"O. c #AFA125",
"+. c #B0A122",
"@. c #C4AA0D",
"#. c #CAAE0E",
"$. c #CEB20D",
"%. c #D2B50E",
"&. c #D6B90E",
"*. c #DBBD0D",
"=. c #C4AB14",
"-. c #CCB211",
";. c #D4B712",
":. c #E4C30E",
">. c #EBCA0E",
",. c #F1CE0E",
"<. c #F5D20E",
"1. c #FAD60E",
"2. c #FFD90E",
"3. c #8D834A",
"4. c #938343",
"5. c #988848",
"6. c #898255",
"7. c #9A8651",
"8. c #9A8553",
"9. c #A89B4A",
"0. c #A58F59",
"q. c #AC955D",
"w. c #A59B5E",
"e. c #8A8663",
"r. c #888366",
"t. c #988A60",
"y. c #8D9765",
"u. c #9B946C",
"i. c #898676",
"p. c #B29B62",
"a. c #A59F76",
"s. c #ABA26B",
"d. c #BBA366",
"f. c #BFA568",
"g. c #A8A27A",
"h. c #C5AB6B",
"j. c #C9AE6D",
"k. c #C0A669",
"l. c #CDB16F",
"z. c #CDB170",
"x. c #567182",
"c. c #5D7785",
"v. c #5A7789",
"b. c #5C798A",
"n. c #5F7E91",
"m. c #697A86",
"M. c #757F86",
"N. c #607F93",
"B. c #798587",
"V. c #638296",
"C. c #848484",
"Z. c #8E8D82",
"A. c #8B8B8B",
"S. c #818A8E",
"D. c #989581",
"F. c #969489",
"G. c #939393",
"H. c #94999C",
"J. c #9B9A9B",
"K. c #969797",
"L. c #A19E8C",
"P. c #A8A69E",
"I. c #A9A695",
"U. c #B4AF90",
"Y. c #929CA2",
"T. c #97A2A9",
"R. c #A4A4A4",
"E. c #ABACAC",
"W. c #A2A7AA",
"Q. c #B7B5AB",
"!. c #BFBDAF",
"~. c #AFB6BB",
"^. c #BBBBBA",
"/. c #B4B4B5",
"(. c #C4C1AE",
"). c #CDCBBE",
"_. c #BFBFC0",
"`. c #C3C4C4",
"'. c #CCCCCC",
"]. c #D5D5D5",
"[. c #DDDCDD",
"{. c #DFE0E0",
"}. c #E4E4E4",
"|. c #ECECEC",
" X c #EFEFF0",
".X c #F3F3F3",
"XX c #FEFEFE",
/* pixels */
"                                          b.f y   y g n.                                                                ",
"                                        x.              v.                                                              ",
"                                    u 3 g g         2 % % # % 2                                                         ",
"                                  v.V.      g $ + @.,.2.2.2.2.,.' :                                                     ",
"                                g   g     7 / ,.2.2.2.2.2.2.2.2.2.2.#.w                                                 ",
"                              x.      b.: >.2.2.2.2.2.2.2.2.2.2.2.2.2.>.1                                               ",
"                                    j / 2.2.2.2.2.2.2.2.2.2.2.2.2.2.2.2.1.-                                             ",
"                                  p A 2.2.2.2.2.2.2.2.2.2.2.2.2.2.2.2.2.2.:.9                                           ",
"                                  ; Y 2.2.2.2.2.2.2.2.2.2.2.2.2.2.2.2.2.2.2.)                                           ",
"                                8 >.,.2.2.2.2.2.2.2.2.2.2.2.2.2.2.2.2.2.2.2.2.;                                         ",
"                              g | 2.2.2.2.2.2.2.2.2.2.2.2.2.2.2.2.2.2.2.2.2.2.*.a                                       ",
"                              5 $.2.2.2.2.2.2.2.2.2.2.2.2.2.2.2.2.2.2.2.2.2.2.2...                                      ",
"                              8 ' 2.2.2.2.2.2.2.2.2.2.2.2.2.2.2.2.2.2.2.2.2.2.2.]                                       ",
"                              G 2.2.2.2.2.2.2.2.2.2.2.2.2.2.2.2.2.2.2.2.2.2.2.2.>.&                                     ",
"                              S 2.2.2.2.2.2.2.2.2.2.2.2.2.2.2.2.2.2.2.2.2.2.2.2.2.D                                     ",
"                              A 2.2.2.2.2.2.2.2.2.2.2.2.2.2.2.2.2.2.2.2.2.2.2.2.2.<.{                                   ",
"                              Z 2.2.2.2.2.2.2.2.2.2.2.2.2.2.2.2.2.2.2.2.2.2.2.1.<.1.<.r                                 ",
"                              ; 2.2.2.2.2.2.2.2.2.2.2.2.$.T Z Y &.2.2.2.1.( 3.g.I.u.} w                                 ",
"                              q 2.2.2.2.2.2.2.2.2.2.&.L `.XXXX}.R.0 %.>.H }.XXXXXXXXXXH.                                ",
"                              8 *.2.2.2.2.2.2.2.2.=.D..XXXXXXXXXXXXXi., |.XXXXXXXXXXXXXXW.                              ",
"                                ( 2.2.2.2.2.2.2.:.D.XXXXXXXXXXXXXXXXXXG..XXXXXXXXXXXXXXXXXb                             ",
"                                < 2.2.2.2.2.2.2...XXXXXXXXXXXXXXXXXXXX'.E.XXXXXXXXXXXXXXXXH.                            ",
"                                5 :.2.2.2.2.2.<.I.XXXXXXXXXXXXXXXXXXXX.XA.XXXXXX[.[.XXXXXXW.                            ",
"                                  ` 2.2.2.2.2.>.^.XXXX}./.XXXXXXXXXXXXXXM XXXXXXG.G.XXXXXXY.                            ",
"                                  > 2.^ 1.2.2.<.Q.XXXX'.C.XXXXXXXXXXXX.XC.XXXXXXXXXXXXXX|.n                             ",
"                                  a *.@ @.2.2.2.g.XXXXXXXXXXXXXXXXXXXX`.m !.I.a.w.9.9.s.S.                              ",
"                                d   } Y C 1.2.2._ |.XXXXXXXXXXXXXXXXXXr.%.>.>.<.2.2.2.1. .                              ",
"                                g V.q B :.Q 2.2.1.6.|.XXXXXXXXXXXXXXP.` 2.2.2.2.2.2.2.2.,.                              ",
"                                g b.c.X 1.Q >.2.2.:.4.^.XXXXXXXX|.F.) 2.2.2.2.2.2.2.2.2.>.                              ",
"                                d   N.7 1.<.Q 2.2.2.1.=.X.r.i.t D %.2.2.2.2.2.2.2.2.2.2.o.                              ",
"                                d     . ,.2.' >.2.2.2.2.2.2.2.2.2.2.2.2.1.>.:.&.$.@.` } x                               ",
"                                d     u -.2.2.2.2.2.2.2.2.2.2.2.2.>.! R F G H K 8.8.p.j.h.x                             ",
"                                x.    y.( C <.2.2.2.2.2.2.2.2.<.B , q.h.l.l.l.l.l.l.l.l.l.d.a                           ",
"                                    ..$.<.<.~ 2.2.2.2.2.2.2.#.* d.l.l.l.l.l.l.l.l.l.l.l.l.l.v                           ",
"                                    ( V &.2.1.2.2.2.2.2.2.) H l.l.l.l.l.l.l.l.l.l.l.l.l.l.l.U                           ",
"                                    ~ ~ 2.2.2.2.2.2.2.2.^ 3.l.l.l.l.l.l.l.l.l.l.l.l.l.l.l.l.j.b                         ",
"                                    A 2.2.2.2.2.2.2.2.&.L l.l.l.l.l.l.l.l.l.l.l.l.l.l.l.l.l.l.P                         ",
"                                    r ' :.! :.2.2.2.1.D j.l.l.l.l.l.l.l.l.l.l.l.l.l.l.l.l.l.l.p.                        ",
"                                        S *.2.2.2.2.#.7.l.l.l.l.l.l.l.l.l.l.l.l.l.l.l.l.l.l.l.h.h                       ",
"                                        O.2.2.2.2.2.E k.l.l.l.l.l.l.l.l.l.l.l.l.l.l.l.l.l.l.l.p.                        ",
"                                        O.2.2.2.2.2.F l.l.l.l.l.k.l.l.l.l.l.l.l.l.l.l.l.l.j.t.B.                        ",
"                                        +.2.2.2.2.2.F l.l.l.l.p.= J q.h.l.l.l.l.l.l.l.p.P z                             ",
"                                        ] 2.2.2.2.2.E h.l.l.l.l.l.l.p.U 0 0 J K K J J t                                 ",
"                                        [ 2.2.2.2.2.' q.l.l.l.l.l.l.l.l.l.l.l.l.l.l.l.c                                 ",
"                                        =.2.2.2.2.2.<.G z.l.l.l.l.l.l.l.l.l.l.l.l.h.r.                                  ",
"                                      c.;.2.2.2.2.2.2.' 7.l.l.l.l.l.l.l.l.l.l.l.h.e                                     ",
"                                    n 6 *.2.2.2.2.2.2.2.T 0.l.l.l.l.l.l.l.l.l.l.P                                       ",
"                                    `.'.F <.2.2.2.2.2.2.1.A K l.l.l.l.l.l.l.j.I j                                       ",
"                                  B.XXXX.XD.o.:.2.2.2.2.2.2.#.o K q.f.f.q.4.O 5                                         ",
"                                  `.XXXXXXXX}.L.5.) *.1.2.2.2.1.#.Q W / ~ >.&.Z.M.u                                     ",
"                                  }.XXXXXXXXXXXXXX[.Q.u.X.( $.,.2.2.2.2.2.2.*.).XXs                                     ",
"                                m.XXXXXXXXXXXXXXXXXXXXXXXX.X'.K.# ;.2.2.2.2.>.(..XC.h                                   ",
"                                T.XXXXXXXXXXXXXXXXXXXXXXXXXXXX`.].e.<.2.2.2.1.U.^.`.N                                   ",
"                                ~.XXXXXXXXXXXXXXXXXXXXXXXXXXXXJ.XX}.A 2.2.2.2.s.A.XXE.                                  ",
"                              m.l ].XXXXXXXXXXXXXXXXXXXXXXXX}._.XXXXP.' 2.2.2.T M m ].5                                 ",
"                              H..XM R.XXXXXXXXXXXXXXXXXXXXXXR..XXXXX.X6.>.2.2.F XX|.m b                                 ",
"                        z z 5 m }.XXR.k `.XXXXXXXXXXXXXXXXXXR.XXXXXXXX[.D 2.:.D.XXXX^.4                                 ",
"                      XXXXXXXX|.A.J.XXXXR.z J.[.XXXXXXXXXX.XE.XXXXXXXXXX^.( R [.XXXXXX4 b h                             ",
"                      XXXXXXXXXXXX`.J.XXXXXX'.G.A.A.E.].|.`.^.XXXXXXXXXXXXZ.c XXXXXXXXJ.}.E.i                           ",
"                      XXXXXXXXXXXXXX[..XXXXXXXXXXX}.^.A.k 4 {.XXXXXXXXXXXXXX|.XXXXXXXX XXXXX[.i                         "
};
