/* XPM */
static char *_6b175a2ed2442e3b07564c6a8b25d94[] = {
/* columns rows colors chars-per-pixel */
"60 60 226 2 ",
"   c None",
".  c #0A0000",
"X  c #241300",
"o  c #4F3900",
"O  c #533D00",
"+  c #583802",
"@  c #4A2F00",
"#  c #633D00",
"$  c #693F00",
"%  c #5B4503",
"&  c #674101",
"*  c #6C4300",
"=  c #6E4C00",
"-  c #724700",
";  c #744B00",
":  c #7A4D00",
">  c #765100",
",  c #7B5301",
"<  c #7C5809",
"1  c #755E15",
"2  c #835501",
"3  c #865B06",
"4  c #8B5D04",
"5  c #8A5E09",
"6  c #915E00",
"7  c #8E6005",
"8  c #8C640C",
"9  c #946302",
"0  c #9A6600",
"q  c #9C6901",
"w  c #92660E",
"e  c #986A06",
"r  c #9E720A",
"t  c #947112",
"y  c #A46E00",
"u  c #A57404",
"i  c #AB7301",
"p  c #AB7B03",
"a  c #AE7C09",
"s  c #A67807",
"d  c #B17600",
"f  c #B07E05",
"g  c #B17F0A",
"h  c #AC7E12",
"j  c #A77D14",
"k  c #B07F11",
"l  c #8E7727",
"z  c #AE8201",
"x  c #AE860A",
"c  c #B38400",
"v  c #B48A00",
"b  c #BB8C00",
"n  c #B48109",
"m  c #B28B0D",
"M  c #BB8808",
"N  c #B59200",
"B  c #BD9200",
"V  c #BD9A01",
"C  c #BE940D",
"Z  c #AD8215",
"A  c #B48212",
"S  c #B98610",
"D  c #B48D13",
"F  c #BA8A13",
"G  c #B28718",
"H  c #B68A19",
"J  c #BC8A19",
"K  c #BC9413",
"L  c #BD9914",
"P  c #BD9B19",
"I  c #BFA000",
"U  c #BFA21F",
"Y  c #A88522",
"T  c #BD8E21",
"R  c #BE9324",
"E  c #BA972A",
"W  c #C39500",
"Q  c #C69A01",
"!  c #CA9D01",
"~  c #C2960E",
"^  c #C4990E",
"/  c #CA9C09",
"(  c #C89500",
")  c #C49B15",
"_  c #C99E13",
"`  c #C69D1A",
"'  c #CA9E1D",
"]  c #C19617",
"[  c #C38F1A",
"{  c #C4A102",
"}  c #CEA200",
"|  c #C6A30A",
" . c #C9A30E",
".. c #D2A500",
"X. c #D5AA00",
"o. c #DAAD01",
"O. c #D2A30A",
"+. c #D6AB0D",
"@. c #D9AE0C",
"#. c #DCB301",
"$. c #DFB802",
"%. c #DCB30D",
"&. c #DAB30A",
"*. c #C6A411",
"=. c #CCA214",
"-. c #C3A41D",
";. c #CDA21B",
":. c #C9AA18",
">. c #D1A615",
",. c #D4AB14",
"<. c #DAAE13",
"1. c #D1A61A",
"2. c #D4AB1C",
"3. c #D8AF1B",
"4. c #DBB313",
"5. c #DBB41B",
"6. c #DEBA1F",
"7. c #D9B416",
"8. c #E0AE00",
"9. c #E2B500",
"0. c #E4BB01",
"q. c #EABC01",
"w. c #E2B60C",
"e. c #E4BB0C",
"r. c #EABD0B",
"t. c #E0B515",
"y. c #E4BB13",
"u. c #EABD13",
"i. c #E1B51A",
"p. c #E3BB1C",
"a. c #E9BF1D",
"s. c #C49B2B",
"d. c #C89825",
"f. c #C59F37",
"g. c #CCA221",
"h. c #CEAA24",
"j. c #CEA32C",
"k. c #D3AD22",
"l. c #D7AB23",
"z. c #D5B222",
"x. c #D9B621",
"c. c #DCB421",
"v. c #DDBA21",
"b. c #DCB52B",
"n. c #DEBA2D",
"m. c #D7B72A",
"M. c #CFAB3E",
"N. c #CDA436",
"B. c #DCB637",
"V. c #E3BB22",
"C. c #E8BF24",
"Z. c #E1BD2C",
"A. c #E2B721",
"S. c #E7C101",
"D. c #EBC301",
"F. c #EEC901",
"G. c #ECC20D",
"H. c #EAC50D",
"J. c #F2C501",
"K. c #F4CC01",
"L. c #F9CE01",
"P. c #F2C50C",
"I. c #F5CC0C",
"U. c #F9CE0C",
"Y. c #F3D001",
"T. c #FBD301",
"R. c #FEDB01",
"E. c #FAD10B",
"W. c #FFDC0A",
"Q. c #ECC314",
"!. c #E5C21E",
"~. c #EBC31C",
"^. c #EEC91D",
"/. c #F1C614",
"(. c #F5CB13",
"). c #F1C61C",
"_. c #F3CB1C",
"`. c #F8CF15",
"'. c #FAD213",
"]. c #FBD41C",
"[. c #FDD81D",
"{. c #FBD718",
"}. c #FFE21C",
"|. c #E5C125",
" X c #EBC424",
".X c #EECA24",
"XX c #E6C22A",
"oX c #E9C529",
"OX c #EFC92B",
"+X c #F2CD24",
"@X c #F6CF2A",
"#X c #F5D226",
"$X c #FAD524",
"%X c #FDDB24",
"&X c #F7D628",
"*X c #F9D429",
"=X c #FEDB28",
"-X c #E6C430",
";X c #E9C631",
":X c #EDCC31",
">X c #E4C53B",
",X c #F3CE30",
"<X c #EFD031",
"1X c #F4D135",
"2X c #FDDA3B",
"3X c #FBD934",
"4X c #FFE326",
"5X c #FFE129",
"6X c #FFEC29",
"7X c #FFE825",
"8X c #D2AE42",
"9X c #EACA48",
"0X c #F6DA46",
"qX c #EDD051",
"wX c #EFD353",
"eX c #FFEA46",
"rX c #FFEB48",
"tX c #FFEA49",
"yX c #FFED4D",
"uX c #FFEC4A",
"iX c #FFE147",
"pX c #FFEE52",
"aX c #FFEF55",
"sX c #EFD96F",
"dX c #FFF071",
"fX c #FFEE6B",
/* pixels */
"  0XeXtXtXtXtXtXtXtXtXtXtXtXtXtXtXtXtXtXtXtXtXtXtXtXtXfX        0XyXyXyXyXyXyXyXyXyXyXyXpXpXpXpXpXpXpXaXaXaXaXaXaXpXdX  ",
"1 -.^.!.!.!.!.!.!.!.p.p.6.6.6.6.6.6.v.x.x.x.x.x.x.x.2.>X9X+XV.t -.v.x.x.x.x.x.z.z.z.k.k.k.k.k.k.h.h.h.h.h.h.h.h.h.g.B.9X",
"O z o.......} } ! ! ! ! ! Q Q Q W W W b b b b b b b c } ..M s > p W b b b b b v v c c c c c p p p p p p p p i u u y ~ p.",
"% v 9.X.X.X.X.X.......} } } ! ! ! ! Q Q Q Q W W W W b ,.O.i 0 , z ! W W W V W B B b b b b b v v c c c c c z z z z p =.A.",
"O v 9.o.o.X.X.X.X.......} } ! ! ! ! Q Q Q Q W W W W b +.O.d q , z ! W W W W W B B b b b b b v v v c c c c z z z z p =.A.",
"O v 0.o.#.o.o.X.X.X.......} } ! ! ! ! ! Q Q Q Q W W b @.O.d 0 , c ! Q Q Q W W W W B B b b b b v v v v c c c c c c p =.A.",
"O v 0.#.#.#.o.o.X.X.X.......} } ! ! ! ! ! ! Q Q Q Q b @.O.d 0 , v } Q Q Q Q W W W W B B b b b b b v v v c c c c c p =.A.",
"O N q.#.#.#.#.o.o.X.X.X.........} } ! ! ! ! ! Q Q Q W @.O.i 0 , v } ! ! Q Q Q Q W W W B B b b b b b v v v c c c c p =.A.",
"O N D.$.$.#.#.#.o.o.o.X.X.X.......} } ! ! ! ! ! ! Q W @.O.i 0 , v ..! ! ! ! Q Q Q W W W W B B b b b b b v v v v v p =.p.",
"O N D.9.9.9.$.#.#.#.o.o.X.X.X.........} ! ! ! ! ! ! W @.O.i 0 , v ..! ! ! ! ! Q Q Q Q W W W B B b b b b b b v v v f =.p.",
"O N D.0.0.0.0.9.$.#.#.#.o.o.X.X.X.........} } ! ! ! Q %.O.i 0 > v X.} } } ! ! ! ! Q Q Q Q W W W B B b b b b b b b c =.6.",
"O N J.0.0.0.0.0.0.9.$.#.#.#.o.o.X.X.X.........} } } ! %.O.i 9 > v X.} ..} } } } ! ! ! ! Q Q Q W W W W B B b b b b v =.5.",
"O V K.S.D.0.0.0.0.0.0.9.$.$.#.#.#.o.o.X.X.X.......} ! %.O.i 9 > N o...........} } } } ! ! ! Q Q Q W W W W B B B b b ,.6.",
"O V L.D.D.D.D.D.0.0.0.0.0.0.9.$.#.#.#.o.o.X.X.X.X...} %.O.i 9 > N #.X.X.X.........} } } } } ! ! ! Q Q Q Q W W W W b ,.5.",
"O V T.F.F.D.D.D.D.D.S.0.0.0.0.0.9.$.$.#.#.o.o.X.X.X...e.O.i 9 > N $.X.X.X.X.X.X.........} } } } ! ! ! ! Q Q Q W W B ,.5.",
"O V T.F.F.F.F.D.D.D.D.D.S.0.0.0.0.0.9.$.#.#.#.o.o.X...e.O.i 9 > V 0.#.#.#.o.X.X.X.X.X.......} } } } } ! ! ! Q Q Q W ,.5.",
"O { R.K.K.K.K.K.F.F.F.D.D.D.S.S.0.0.0.0.0.$.$.#.#.#.X.H.+.i 9 , V 0.$.$.$.#.#.#.#.X.X.X...........} } } } ! ! ! ! W 4.6.",
"= K p.7.7.7.3.7.7.3.3.3.7.A.A.Z.x.2.2.2.2.2.2.1.1.1.1.>.c i 6 * K 2.1.2.1.1.1.1.1.1.2.z.c.b.k.;.1.;.;.;.;.;.;.;.;.;.=.C ",
"  8 h k h h h h h k k k S J T T A h A A A A A A k n A a q u q ; s S n n A A A A S S F [ d.d.H S F S S S S S S S F F Z   ",
"  X , 6 4 4 4 4 4 4 6 6 6 9 9 9 9 9 6 9 9 9 9 9 9 9 9 0 0 0 0 q 0 0 0 0 0 0 0 q q q y y i y i y y y y y y y y y y i (   ",
"  < r s s s s s s s s s s 9 q q 9 u s s s s s s s s s n F F S S n a a a a a a f f f a y i i y s n n n n n n n n n M >.  ",
"  n.oX|.|.|.|.|.|.|.|.V.9Xf.9 0 7 =.oX|.|.|.|.|.XX|.oX1XiXiX0X2X:XoXoXXXXXXXXXXXXXV.9XN.y i 0 =.oXXXXXXXXXXXXXXXXX|.wX  ",
"% L _.~.~.~.~.a.p.p.p.p..X2.9 4 , ) ~.p.p.p.p.p.i.5.5.7.7.7.3.3.3.3.>.>.>.>.>.>.>.=.v.3.i q , m 3.=.=.=.=.=.=._ _ ^ z.Z.",
"O K ).p.p.p.p.i.i.t.t.<.!.! 9 2 = K p.5.4.4.4.4.<.<.>.>.>.>.>.>.=.=.=._ _ _ _ ^ ^ ~ 4.! y 9 ; x =.^ ^ ^ ^ ~ ~ C C M 2.5.",
"O L +Xa.a.a.a.p.p.p.p.5. X/ 9 2 ; ) ~.p.p.5.5.5.5.5.3.3.2.2.2.2.1.>.=.=.=.=.=.=._ ) 5./ y 9 > m >._ _ _ ) ) ) ) ) C 2.5.",
"O L +X X XC.V.V.V.p.p.p. X/ 9 2 ; )  Xp.p.6.5.5.5.5.5.3.2.2.2.2.2.1.1.;.;.;.=.=.=.) 5./ y 9 > m 1.=.=._ _ ) ) ) ) K 2.5.",
"O P @X X X XC.V.V.V.V.A. X/ 9 , ; )  XA.A.A.v.c.c.5.5.5.5.2.2.2.2.2.1.1.;.;.;.;.;.` 5./ y 7 > D 2.;.;.;.` ` ` ) ) K l.5.",
"O P @X X X X XC.C.C.V.A.oX/ 9 , ; )  XV.V.V.A.A.c.c.c.x.x.3.2.2.2.2.2.1.1.;.;.;.;.` 5./ q 7 > D 2.;.;.;.;.` ` ` ` ] z.5.",
"O P *XOX X X X XC.C.C.A.oX/ 9 , ; `  XV.C.V.A.A.A.c.c.c.c.x.x.l.l.2.2.2.2.;.;.;.;.' c./ q 4 > D 2.;.;.;.;.;.` ` ` ] z.5.",
"O P *XOX X X X X XC.C.V. X/ 7 , ; ` OXC.C.C.C.A.A.A.c.c.c.c.x.x.z.l.2.2.2.2.1.;.;.;.v./ q 4 > D 2.;.;.;.;.;.;.` ` ] z.5.",
"O V I.G.G.q.q.q.0.0.9.9.Q./ 2 * = Q S.0.0.0.w.$.&.&.&.o.o.o.X.X.X.....O.} } } ! / / 4./ 6 2 > v ..} / / / Q Q Q Q B 3.5.",
"O N J.0.0.0.0.9.9.9.#.o.H./ : # = V 0.#.$.#.#.#.o.X.X.X.X.......} } } ! ! ! ! Q Q W @./ 2 : > v } Q Q Q Q W W W W b ,.5.",
"O N K.0.D.0.0.0.0.0.9.#.H./ ; # = Q S.$.$.$.$.$.#.#.#.X.X.X.X.......} } } ! ! ! ! Q %./ 2 ; > v } ! ! ! Q Q Q W W b ,.5.",
"O V L.D.D.D.D.0.0.0.0.9.H./ ; # = Q D.0.0.0.$.$.$.#.#.#.#.o.X.X.X.......} } } } ! Q %./ 2 ; > v ..} } } } ! Q Q Q B ,.5.",
"O V T.D.F.D.D.D.D.D.0.0.H./ ; # = { D.0.0.0.0.0.$.$.$.$.$.#.#.#.#.X.X.X.......} } ! %./ 2 ; > v X.} } } } } } ! ! Q 4.5.",
"O I R.F.K.F.F.F.D.D.D.q.H./ ; # = { F.S.S.S.S.0.0.0.0.0.0.$.$.$.$.#.#.#.X.X.X.....} %./ 2 ; ; N #.........} } } } ! 4.5.",
"O { R.Y.Y.Y.K.K.K.F.F.D.I./ ; # = { L.D.D.D.D.D.S.S.S.S.0.0.0.0.$.$.$.#.#.#.o.X.X...e./ 2 ; ; N $.X.X.X.X.........} 4.5.",
"O { R.K.Y.K.K.K.K.F.F.D.(./ : # > } K.D.D.D.D.D.S.S.S.S.S.0.0.0.0.$.$.$.#.&.&.&.o.X.y./ 2 ; , V $.&.&.o.X.X.X.X.X.} 4.2.",
"  D l.;.;.;.;.;.' ' ' ;.) 7 ; + @ F 1.' ' ' ' ' ' ' ' l.b.B.B.j.' ;.' ' ' ' ' ' ' ' ) 9 2 * o F g.' ' ' ' ' ' ' ' g.K   ",
"  O 3 4 3 3 3 3 3 3 3 4 3 * ; = + , 4 3 4 4 4 4 4 4 4 7 w w w 5 4 7 7 4 4 7 7 7 7 9 4 : , , & 3 e 9 9 9 9 9 9 9 9 e r   ",
"  . + # # # # # # # # # # # # # * # # # # # # # # # # # * - * - * $ * * * * * * * * * - - - ; - - - - - - - ; ; - : i   ",
"  Y j Z h h h h h h Z Z T s.s.s.R H Z Z Z Z Z Z Z Z Z Y < ; : ; r G Z Z Z Z G G G G R N.j.s.s.R H H H H H H H H H F B.  ",
"l m.#X+X+X+X+X.X.X.X+X.X*X2X3X3X3X@X.X.X X X XoXoXoX~.0XM.- ; 2 :.+XoXoXoXoXoXoXoXoX,X2X2X3X1XOXoXoXoX X|.|.XXXXXXV.qXsX",
"o Q R.K.L.K.K.K.J.J.J.D.q.q.q.q.q.q.q.9.9.9.9.9.9.9.o.r./ : * ; Q q.9.9.9.#.#.o.o.o.X...............} ! ! ! ! ! ! Q @.7.",
"O Q R.K.L.K.J.J.J.J.J.J.D.q.q.q.q.q.q.q.9.9.9.9.9.9.8.H.Q ; # = Q q.9.9.9.9.#.#.#.o.o.X.X.X.X...........} ! ! ! ! Q 4.5.",
"O Q R.K.L.L.K.K.K.J.J.J.J.J.D.q.q.q.q.q.q.q.9.9.9.9.9.H.Q ; # = Q D.0.0.9.9.9.9.9.#.o.o.o.X.X.X...........} ! ! ! ! 4.7.",
"O { R.L.L.L.L.K.K.K.J.J.J.J.J.D.q.q.q.q.q.q.9.9.9.9.9.H.Q ; # = Q D.0.0.0.0.9.9.9.9.#.o.o.o.X.X.X.............! ! ! 4.7.",
"O { R.L.L.L.L.L.L.K.K.J.J.J.J.J.q.D.q.q.q.q.q.q.9.9.9.G.Q ; # = Q J.0.0.q.0.0.9.9.9.9.#.#.o.o.X.X.X.X.............! 4.7.",
"O { R.T.T.T.L.L.L.L.K.K.J.J.J.J.J.D.D.q.q.q.q.q.q.0.9.G.Q ; # = Q J.q.q.0.0.0.0.9.9.9.9.#.#.o.o.o.X.X.X...........! 4.5.",
"O { W.E.E.E.E.E.U.I.I.I.I.P.P.P.P.P.G.G.r.r.r.r.r.r.9.Q.Q ; # ; { K.S.S.q.0.0.0.0.0.9.9.9.#.#.#.o.o.X.X.X.........! 4.5.",
"O | W.'.'.'.'.'.`.`.(.(.(.(././.P.P.P.G.G.r.r.r.r.r.w.Q.Q ; # ; | I.H.H.H.r.r.r.e.e.w.w.w.%.%.&.&.o.o.o.X.X.X.....} 4.7.",
"O | {.'.'.'.'.'.'.`.`.`.`.(.(.(./././././.Q.Q.u.u.u.u.~.Q ; # =  .`.Q.Q.Q.Q.Q.u.u.y.e.e.w.w.w.%.%.%.@.@.@.+.+.+.+.O.7.7.",
"O  .}.].{.{.].].].].].].]._._._._.).).).).).Q.Q.a.u.u.~.Q ; # =  ._.Q.Q.Q.Q.Q.Q.Q.y.y.y.y.t.t.t.4.4.4.4.<.<.@.+.+.O.6.7.",
"O *.}.{.[.[.[.[.[.].].].].].]._._._._._.).).).~.~.~.a.).Q - # = *.].^.^.^.~.~.~.~.~.~.p.y.p.t.t.t.t.4.4.4.4.<.<.3.,.p.7.",
"O :.7X%X%X%X%X%X%X%X$X$X$X$X$X$X#X+X+X+X+X).).)..X~.~.+XQ - # = :.$X)._.).^.^.^.~.~.~.~.!.p.p.p.p.p.p.5.5.5.5.4.4.3.V.7.",
"O :.7X%X%X%X%X%X=X=X=X=X$X$X$X$X#X#X#X+X@X@X+X+X+X+X.X+XQ - # = :.=X+X+X+X+X.X.X.X.X.X X~.~.|.|.a.p.p.p.p.5.5.5.7.3.|.3.",
"O :.6X%X%X%X%X%X%X%X=X=X=X=X$X$X$X$X#X#X#X#X@X+X+X+X+X+XQ * + = :.=X#X#X#X+X+X.X.X.X.X.X X X X|.|.|.V.V.A.A.6.6.5.5.|.3.",
"o :.6X4X4X4X4X4X4X4X5X5X=X=X=X=X=X=X=X=X*X*X*X#X#X#X@X*X/ : * ; 2.5X&X&X&X&X#X#X#X#X+X.X.X.X.X X X X X|.V.V.V.A.A.5.oX7.",
"% U 3X:X<X<X<X<X:X:X:X:X:X:X:X:X:X:X:X:X;X;X;X;X;X;X;XZ.B y q , -.1X;X;X;X;X;X;X;X;X-X-X-XXXXXZ.Z.Z.n.n.n.n.n.b.b.b.m.*.",
"  E 8XM.M.M.M.M.M.M.M.M.M.M.M.M.M.M.M.M.M.M.M.M.M.M.8XE         E 8XM.M.M.M.M.M.M.M.M.M.M.M.M.M.M.M.M.M.M.M.M.M.M.8Xs.  "
};
